<svg xmlns="http://www.w3.org/2000/svg" width="550" height="44" viewBox="-204 259 550 44" enable-background="new -204 259 550 44"><path fill="#2ABEAA" d="M-204 259v44h44v-44h-44zm42 42h-40v-40h40v40zm4-42v44h44v-44h-44zm40 40h-36v-36h36v36zm6-40v44h44v-44h-44zm18 31l-9-9 2-2 7 7 15-15 2 2-17 17zm280-31c-12.2 0-22 9.8-22 22s9.8 22 22 22 22-9.8 22-22-9.8-22-22-22zm-4 31l-9-9 2-2 7 7 15-15 2 2-17 17zm-248-31v44h44v-44h-44zm42 42h-40v-40h40v40zm-2-38h-36v36h36v-36zm-22 27l-9-9 2-2 7 7 15-15 2 2-17 17z"/><path fill="#95E0D7" d="M-20 259v44h44v-44h-44zm42 42h-40v-40h40v40zm4-42v44h44v-44H26zm18 31l-9-9 2-2 7 7 15-15 2 2-17 17z"/><path fill="#2ABEAA" d="M94 259c-12.2 0-22 9.8-22 22s9.8 22 22 22 22-9.8 22-22-9.8-22-22-22zm0 42c-11 0-20-9-20-20s9-20 20-20 20 9 20 20-9 20-20 20zm46-42c-12.2 0-22 9.8-22 22s9.8 22 22 22 22-9.8 22-22-9.8-22-22-22zm0 40c-9.9 0-18-8.1-18-18s8.1-18 18-18 18 8.1 18 18-8.1 18-18 18zm92-40c-12.2 0-22 9.8-22 22s9.8 22 22 22 22-9.8 22-22-9.8-22-22-22zm0 42c-11 0-20-9-20-20s9-20 20-20 20 9 20 20-9 20-20 20zm0-38c-9.9 0-18 8.1-18 18s8.1 18 18 18 18-8.1 18-18-8.1-18-18-18zm-4 27l-9-9 2-2 7 7 15-15 2 2-17 17z"/><path fill="#95E0D7" d="M324 259c-12.2 0-22 9.8-22 22s9.8 22 22 22 22-9.8 22-22-9.8-22-22-22zm-4 31l-9-9 2-2 7 7 15-15 2 2-17 17zm-42-31c-12.2 0-22 9.8-22 22s9.8 22 22 22 22-9.8 22-22-9.8-22-22-22zm0 42c-11 0-20-9-20-20s9-20 20-20 20 9 20 20-9 20-20 20z"/></svg>