<svg width="200" height="184" viewBox="0 0 200 184" xmlns="http://www.w3.org/2000/svg" xmlns:xlink="http://www.w3.org/1999/xlink"><svg width="24" height="14" viewBox="-2 -2 24 14" id="arrow-down-black" y="149"><path d="M19.8.1c-.2-.2-.5-.2-.7 0L10 8.8.9.1C.7 0 .3 0 .2.1 0 .3-.1.6.2.8l9.5 9c.2.2.5.2.7 0l9.5-9c.2-.2.1-.5-.1-.7z"/><path fill="none" d="M0 0h20v10H0z"/></svg><svg width="24" height="14" viewBox="-297 390 24 14" id="arrow-down-black--hover" x="152" y="99"><path fill="#2ABEAA" d="M-275.2 392.1c-.2-.2-.5-.2-.7 0l-9.1 8.7-9.1-8.7c-.2-.1-.6-.1-.7 0-.2.2-.3.5 0 .7l9.5 9c.2.2.5.2.7 0l9.5-9c.2-.2.1-.5-.1-.7z"/></svg><svg width="24" height="14" viewBox="-2 -2 24 14" id="arrow-up-green" x="152"><path fill="#2ABEAA" d="M.1 9.9c.2.2.5.2.7 0L10 1.2l9.1 8.7c.2.2.5.2.7 0 .2-.2.2-.5 0-.7l-9.5-9c-.2-.2-.5-.2-.7 0l-9.5 9c-.2.2-.1.5 0 .7z"/><path fill="none" d="M0 0h20v10H0z"/></svg><svg width="24" height="14" viewBox="-297 390 24 14" id="arrow-up-grey" x="152" y="38"><path fill="#7C7D7E" d="M-294.8 401.8c.2.2.5.2.7 0l9.1-8.7 9.1 8.7c.2.1.6.1.7 0 .2-.2.3-.5 0-.7l-9.5-9c-.2-.2-.5-.2-.7 0l-9.5 9c-.2.2-.1.6.1.7z"/><path fill="none" d="M-295 392h20v10h-20z"/></svg><svg width="24" height="24" viewBox="-471 269 24 24" id="close--black" x="152" y="52"><path d="M-458.3 281l9.1-9.1c.2-.2.2-.5 0-.7-.2-.2-.5-.2-.7 0l-9.1 9.1-9.1-9.1c-.2-.2-.5-.2-.7 0-.2.2-.2.5 0 .7l9.1 9.1-9.1 9.1c-.2.2-.2.5 0 .7.2.2.5.2.7 0l9.1-9.1 9.1 9.1c.2.2.5.2.7 0 .2-.2.2-.5 0-.7l-9.1-9.1z"/></svg><svg width="29" height="26" viewBox="-2 -2 29 26" id="comment" x="121" y="92"><path fill="#FFF" d="M12.5 18.5c-1 0-2-.1-2.9-.3C7.8 20.6 4.7 21 4.7 21c1.2-1.4 1.5-2.8 1.6-3.9C3 15.5.9 12.8.9 9.7.9 4.8 6.1.9 12.5.9s11.6 3.9 11.6 8.8c0 4.8-5.2 8.8-11.6 8.8m0-18.5C5.6 0 0 4.3 0 9.7c0 3.3 2.1 6.2 5.4 8-.2 1.2-.9 2.8-2.7 4.4 0 0 4.7 0 7.3-2.8.8.1 1.7.2 2.6.2C19.4 19.4 25 15 25 9.7 25 4.3 19.4 0 12.5 0"/></svg><svg id="email--light" width="27" height="19" viewBox="-2 -2 27 19" x="92" y="67"><style>.agst0{fill:#fff}</style><path class="agst0" d="M22.2 13.9l-6.3-6.4 6.3-6.4v12.8zm-20.5.3l6-6.1 2.6 2.7c.6.6 1.7.6 2.3 0l2.6-2.7 6 6.1H1.7zM.8 1.1l6.3 6.4-6.3 6.4V1.1zM21.3.8l-9.2 9.3c-.3.3-.9.3-1.2 0L1.7.8h19.6zm.9-.8H.8C.4 0 0 .4 0 .8v13.3c0 .5.4.9.8.9h21.4c.5 0 .8-.4.8-.8V.8c0-.4-.4-.8-.8-.8"/></svg><svg width="39" height="39" viewBox="-2 -2 39 39" id="expand" x="42" y="44"><path fill="#FFF" d="M14.2 19.3L2 31.6V21.1c0-.6-.4-1-1-1s-1 .4-1 1v13c0 .6.3.9.9.9h13c.6 0 1-.4 1-1s-.4-1-1-1H3.4l12.2-12.2c.4-.4.5-1.1 0-1.5s-1-.4-1.4 0zm6.6-3.6L33 3.4v10.4c0 .6.4 1 1 1s1-.4 1-1V.8c0-.5-.3-.8-.9-.8h-13c-.6 0-1 .4-1 1s.4 1 1 1h10.4L19.3 14.2c-.4.4-.5 1.1 0 1.5s1.1.4 1.5 0z"/></svg><svg width="12" height="21" viewBox="-2 -2 12 21" id="facebook" x="188" y="128"><path fill="#7C7D7E" d="M8 5.5H5.3V3.7c0-.7.4-.8.8-.8H8V0H5.3C2.4 0 1.7 2.2 1.7 3.6v1.9H0v3h1.7V17h3.6V8.5h2.4l.3-3z"/></svg><svg width="16" height="30" viewBox="-2 -2 16 30" id="facebook--large" x="121" y="62"><path fill="#7C7D7E" d="M12 9H8l-.1-3.2C7.9 4.8 8.5 4 9 4h3V0H8C3.6 0 3 2.8 3 5v4H0v4h3v13h5V13h3.6l.4-4z"/></svg><svg id="facebook--light" width="12" height="21" viewBox="-87 287 12 21" x="176" y="128"><style>.akst0{fill:#fff}</style><path class="akst0" d="M-77 294.5h-2.7v-1.8c0-.7.4-.8.8-.8h1.9V289h-2.7c-2.9 0-3.6 2.2-3.6 3.6v1.9H-85v3h1.7v8.5h3.6v-8.5h2.4l.3-3z"/></svg><svg width="26" height="26" viewBox="-2 -2 26 26" id="gallery" x="59" y="120"><path fill="#fff" d="M0 6v16h16V6H0zm14 14H2V8h12v12zM2 3h17v17h-2V5H2zm3-1h15v15h2V0H5z"/></svg><svg width="44" height="39" viewBox="-2 -2 44 39" id="gallery-type" x="24"><path fill="#FFF" d="M35 5V0H0v30h5v5h35V5h-5zM1 29V1h33v28H1zm38 5H6v-4h29V6h4v28z"/></svg><svg width="21" height="21" viewBox="-473 270 21 21" id="google-plus" x="176" y="86"><path fill="#7C7D7E" d="M-461 272h-4.1c-.6 0-1.1.1-1.7.1-.6.1-1.3.5-1.9 1-.8 1-1.3 2-1.3 3.1 0 1 .3 1.7.9 2.4.6.7 1.4 1.1 2.5 1.1.3 0 .4 0 .6-.1 0 .1 0 .3-.1.4s-.1.3-.1.6.1.6.3.8c.1.3.3.4.4.7-.4 0-1.1.1-1.8.1-.7.1-1.5.4-2.2.8-.6.4-1 .8-1.3 1.4-.1.5-.2 1.1-.2 1.5 0 .8.4 1.6 1.1 2.2.7.6 1.8 1 3.2 1 1.8 0 3.1-.5 3.9-1.4.8-.8 1.3-1.8 1.3-2.9 0-.7-.1-1.4-.5-1.9-.3-.4-.7-.8-1.2-1.3l-.6-.6c-.1-.1-.3-.3-.3-.4-.1-.2-.2-.3-.2-.6s.1-.4.1-.6c.2-.1.3-.3.4-.5.3-.1.4-.4.6-.6.2-.2.4-.5.6-.7.3-.5.5-1.1.5-2 0-.4-.1-.8-.1-1.1-.1-.3-.3-.6-.4-.8l-.5-.5c-.1-.2-.3-.4-.4-.4h1.3l1.2-.8zm-2.2 12.2c.3.4.6 1 .6 1.4 0 .7-.3 1.3-.8 1.7-.6.4-1.2.7-2.2.7-1.1 0-1.9-.3-2.6-.7-.6-.5-1-1.2-1-2 0-.4.1-.7.3-1 .2-.3.3-.5.5-.7.3-.1.4-.3.6-.4.3 0 .4-.1.5-.1.5-.1.9-.3 1.3-.3.4-.1.7-.1.8-.1h.5l1.5 1.5zm-.8-6.6c0 .3-.1.6-.3.8-.3.4-.7.6-1.3.6-.4 0-.7-.1-1.2-.4-.3-.3-.6-.6-.8-1-.5-.8-.6-1.7-.6-2.6 0-.6.1-1.2.5-1.7s.9-.7 1.4-.7c.3-.1.7.1 1.1.4.4.3.6.6.8 1 .4 1 .6 1.8.6 2.7 0 .4 0 .6-.2.9zm7 1.4v-3h-1v3h-3v1h3v3h1v-3h3v-1h-3z"/></svg><svg width="30" height="29" viewBox="-468 266 30 29" id="google-plus--large" y="120"><path fill="#7C7D7E" d="M-450.1 268h-6.5c-.9 0-1.8.1-2.8.2-1 .2-2 .8-3 1.5-1.2 1.4-2 2.9-2 4.5 0 1.4.5 2.5 1.4 3.5.9 1.1 2.2 1.6 4 1.6.4 0 .6 0 1-.1 0 .1-.1.4-.2.6-.1.2-.1.4-.1.8 0 .5.1.9.4 1.2.1.4.4.6.6 1-.7 0-1.8.1-2.9.2-1.1.2-2.3.6-3.4 1.2-1 .6-1.6 1.2-2 2-.3.8-.4 1.6-.4 2.2 0 1.2.6 2.4 1.8 3.2 1.1.9 2.8 1.4 5.1 1.4 2.8 0 4.9-.8 6.2-2 1.3-1.2 2.1-2.6 2.1-4.2 0-1.1-.2-2-.8-2.8-.5-.6-1.1-1.2-1.9-1.9l-1.1-.9-.5-.5c-.1-.3-.2-.5-.2-.9s.1-.6.2-.9c.2-.2.4-.5.6-.8.4-.2.6-.6 1-.9.2-.2.5-.6.8-1 .5-.8.8-1.6.8-2.9 0-.6-.1-1.2-.2-1.6-.1-.5-.4-.9-.6-1.2-.2-.3-.5-.5-.8-.8-.1-.2-.4-.5-.6-.5h2l2-1.2zm-3.5 17.9c.5.6.9 1.4.9 2.1 0 1-.4 1.9-1.2 2.5-.9.6-2 1-3.5 1-1.8 0-3.1-.4-4.1-1.1-1-.7-1.6-1.8-1.6-2.9 0-.6.1-1.1.4-1.5.3-.4.5-.8.8-1 .4-.2.6-.5.9-.6.4 0 .6-.1.8-.1.8-.2 1.4-.4 2.1-.5.7-.1 1.1-.1 1.2-.1h.8c1 .9 1.9 1.7 2.5 2.2zm-1.2-9.7c0 .4-.2.9-.5 1.2-.6.6-1.2.9-2.1.9-.6 0-1.2-.2-1.9-.6-.5-.4-1-.9-1.3-1.5-.8-1.2-1-2.5-1-3.8 0-.9.2-1.8.8-2.5.6-.8 1.4-1 2.2-1.1.6 0 1.2.2 1.8.6.6.4.9.9 1.2 1.5.6 1.4 1 2.6 1 3.9 0 .7 0 1-.2 1.4zm10.8 1.8v-4h-2v4h-4v2h4v4h2v-4h4v-2h-4z"/></svg><svg width="21" height="24" viewBox="-2 -2 21 24" id="header-arrow--white" x="152" y="14"><path fill="#fff" d="M11 0v12l6-6v5l-8.5 9L0 11.1V6l6 6V0h5z"/></svg><svg width="21" height="21" viewBox="-2 -2 21 21" id="instagram" x="176" y="65"><path fill="#7C7D7E" d="M13.7 0H3.3C1.5 0 0 1.5 0 3.3v10.4C0 15.5 1.5 17 3.3 17h10.4c1.8 0 3.3-1.2 3.3-3V3.3C17 1.5 15.5 0 13.7 0zM15 2v3h-3V2h3zM6.1 6.8c.5-.8 1.4-1.3 2.4-1.3s1.9.5 2.4 1.2c.4.5.6 1.1.6 1.7 0 1.6-1.3 3-3 3-1.6 0-3-1.3-3-3 0-.6.2-1.2.6-1.6zm9.2 6.9c0 .9-.7 1.6-1.6 1.6H3.3c-.9 0-1.6-.7-1.6-1.6v-7h2.5c-.2.6-.3 1.2-.3 1.8 0 2.6 2.1 4.6 4.6 4.6 2.6 0 4.6-2.1 4.6-4.6 0-.6-.1-1.2-.3-1.7h2.5v6.9z"/></svg><svg width="31" height="31" viewBox="-2 -2 31 31" id="instagram--large" x="121"><path fill="#7C7D7E" d="M21.8 0H5.2C2.3 0 0 2.3 0 5.2v16.6C0 24.7 2.3 27 5.2 27h16.6c2.9 0 5.2-2.3 5.2-5.2V5.2C27 2.3 24.7 0 21.8 0zM24 3v5h-5V3h5zM9.6 10.7c.9-1.2 2.3-2 3.9-2s3 .8 3.9 2c.6.8.9 1.7.9 2.8 0 2.6-2.1 4.8-4.8 4.8-2.6 0-4.8-2.1-4.8-4.8 0-1 .4-2 .9-2.8zm14.8 11.1c0 1.4-1.2 2.6-2.6 2.6H5.2c-1.4 0-2.6-1.2-2.6-2.6V10.7h4c-.3.9-.5 1.8-.5 2.8 0 4.1 3.3 7.4 7.4 7.4s7.4-3.3 7.4-7.4c0-1-.2-1.9-.5-2.8h4v11.1z"/></svg><svg width="24" height="23" viewBox="-297 404 24 23" id="menu-black" x="152" y="76"><path d="M-275 406.5c0-.3-.2-.5-.5-.5h-19c-.3 0-.5.2-.5.5s.2.5.5.5h19c.3 0 .5-.2.5-.5m0 9c0-.3-.2-.5-.5-.5h-19c-.3 0-.5.2-.5.5s.2.5.5.5h19c.3 0 .5-.2.5-.5m0 9c0-.3-.2-.5-.5-.5h-19c-.3 0-.5.2-.5.5s.2.5.5.5h19c.3 0 .5-.2.5-.5"/></svg><svg width="24" height="23" viewBox="-297 404 24 23" id="menu-black--hover" x="176"><path fill="#2ABEAA" d="M-275 406.5c0-.3-.2-.5-.5-.5h-19c-.3 0-.5.2-.5.5s.2.5.5.5h19c.3 0 .5-.2.5-.5m0 9c0-.3-.2-.5-.5-.5h-19c-.3 0-.5.2-.5.5s.2.5.5.5h19c.3 0 .5-.2.5-.5m0 9c0-.3-.2-.5-.5-.5h-19c-.3 0-.5.2-.5.5s.2.5.5.5h19c.3 0 .5-.2.5-.5"/></svg><svg width="24" height="24" viewBox="-2 -2 24 24" id="overlay-close" x="152" y="113"><path d="M20 1l-1-1-9 9-9-9-1 1 9 9-9 9 1 1 9-9 9 9 1-1-9-9z"/></svg><svg width="21" height="21" viewBox="-2 -2 21 21" id="pinterest" x="176" y="44"><path fill="#7C7D7E" d="M8.5 0C3.8 0 0 3.8 0 8.5 0 12 2.1 15 5.1 16.3c0-.6 0-1.3.1-2 .2-.7 1.1-4.6 1.1-4.6s-.2-.5-.2-1.3c0-1.3.7-2.2 1.6-2.2.8 0 1.1.6 1.1 1.3 0 .8-.5 1.9-.8 3-.2.9.5 1.6 1.3 1.6 1.6 0 2.7-2.1 2.7-4.5 0-1.9-1.3-3.3-3.5-3.3-2.5 0-4.1 1.9-4.1 4.1 0 .7.2 1.2.6 1.6.2.2.2.3.1.5 0 .2-.1.5-.2.7s-.2.3-.4.2c-1.2-.5-1.7-1.8-1.7-3.2 0-2.4 2-5.3 6.1-5.3 3.2 0 5.4 2.3 5.4 4.9 0 3.3-1.9 5.8-4.6 5.8-.9 0-1.8-.5-2.1-1.1 0 0-.5 2-.6 2.3-.2.7-.5 1.3-.9 1.8.8.3 1.6.4 2.4.4 4.7 0 8.5-3.8 8.5-8.5S13.2 0 8.5 0z"/></svg><svg width="31" height="31" viewBox="-2 -2 31 31" id="pinterest--large" x="68" y="86"><path fill="#7C7D7E" d="M13.5 0C6 0 0 6 0 13.5 0 19 3.3 23.8 8.1 25.9c0-.9 0-2.1.2-3.1.3-1.1 1.7-7.4 1.7-7.4s-.4-.9-.4-2.1c0-2 1.2-3.5 2.6-3.5 1.2 0 1.8.9 1.8 2 0 1.2-.8 3.1-1.2 4.8-.3 1.4.7 2.6 2.1 2.6 2.6 0 4.3-3.3 4.3-7.2 0-3-2-5.2-5.6-5.2-4 0-6.6 3.1-6.6 6.5 0 1.2.3 2 .9 2.6.2.3.3.4.2.8-.1.3-.2.9-.3 1.1-.1.3-.4.5-.7.3-1.9-.8-2.8-2.8-2.8-5.2 0-3.8 3.2-8.4 9.6-8.4 5.2 0 8.5 3.7 8.5 7.7 0 5.3-2.9 9.3-7.3 9.3-1.5 0-2.8-.8-3.3-1.7 0 0-.8 3.1-1 3.7-.3 1-.8 2.1-1.4 2.9 1.2.4 2.5.6 3.8.6C21 27 27 21 27 13.5S21 0 13.5 0z"/></svg><svg id="pinterest--light" width="21" height="21" viewBox="-83 287 21 21" x="176" y="23"><style>.axst0{fill:#fff}</style><path class="axst0" d="M-72.5 289c-4.7 0-8.5 3.8-8.5 8.5 0 3.5 2.1 6.5 5.1 7.8 0-.6 0-1.3.1-2 .2-.7 1.1-4.6 1.1-4.6s-.2-.5-.2-1.3c0-1.3.7-2.2 1.6-2.2.8 0 1.1.6 1.1 1.3 0 .8-.5 1.9-.8 3-.2.9.5 1.6 1.3 1.6 1.6 0 2.7-2.1 2.7-4.5 0-1.9-1.3-3.3-3.5-3.3-2.5 0-4.1 1.9-4.1 4.1 0 .7.2 1.2.6 1.6.2.2.2.3.1.5 0 .2-.1.5-.2.7-.1.2-.2.3-.4.2-1.2-.5-1.7-1.8-1.7-3.2 0-2.4 2-5.3 6.1-5.3 3.2 0 5.4 2.3 5.4 4.9 0 3.3-1.9 5.8-4.6 5.8-.9 0-1.8-.5-2.1-1.1 0 0-.5 2-.6 2.3-.2.7-.5 1.3-.9 1.8.8.3 1.6.4 2.4.4 4.7 0 8.5-3.8 8.5-8.5s-3.8-8.5-8.5-8.5z"/></svg><svg width="42" height="42" viewBox="-2 -2 42 42" id="plus" y="44"><path fill="#fff" d="M18 0h2v18h18v2H20v18h-2V20H0v-2h18z"/></svg><svg width="34" height="34" viewBox="-292 410 34 34" id="search" x="34" y="86"><path d="M-260.1 441.1l-8.2-8.2c2.1-2.2 3.3-5.2 3.3-8.5 0-6.9-5.6-12.4-12.5-12.4s-12.5 5.7-12.5 12.5c0 6.9 5.6 12.4 12.5 12.4 3.3 0 6.2-1.3 8.5-3.3l8.2 8.2c.2.2.5.2.7 0 .1-.1.1-.5 0-.7zm-17.4-5.1c-6.4 0-11.5-5.1-11.5-11.4 0-6.4 5.1-11.4 11.5-11.4s11.5 5.1 11.5 11.4c0 6.3-5.1 11.4-11.5 11.4z"/></svg><svg width="34" height="34" viewBox="-292 410 34 34" id="search--hover" y="86"><path fill="#2ABEAA" d="M-260.1 441.1l-8.2-8.2c2.1-2.2 3.3-5.2 3.3-8.5 0-6.9-5.6-12.4-12.5-12.4s-12.5 5.7-12.5 12.5c0 6.9 5.6 12.4 12.5 12.4 3.3 0 6.2-1.3 8.5-3.3l8.2 8.2c.2.2.5.2.7 0 .1-.1.1-.5 0-.7zm-17.4-5.1c-6.4 0-11.5-5.1-11.5-11.4 0-6.4 5.1-11.4 11.5-11.4s11.5 5.1 11.5 11.4-5.1 11.4-11.5 11.4z"/></svg><svg width="29" height="29" viewBox="-295 407 29 29" id="search--small" x="30" y="120"><path d="M-273 419.5c0 5.2-4.3 9.5-9.5 9.5s-9.5-4.3-9.5-9.5 4.3-9.5 9.5-9.5 9.5 4.2 9.5 9.5m4.9 13.6l-6.6-6.6c1.7-1.9 2.7-4.3 2.7-7 0-5.8-4.7-10.5-10.5-10.5s-10.5 4.7-10.5 10.5 4.7 10.5 10.5 10.5c2.7 0 5.2-1 7-2.7l6.6 6.6c.2.2.5.2.7 0 .2-.2.2-.6.1-.8"/></svg><svg width="29" height="29" viewBox="-295 407 29 29" id="search--small--hover" x="92" y="38"><path fill="#2ABEAA" d="M-273 419.5c0 5.2-4.3 9.5-9.5 9.5s-9.5-4.3-9.5-9.5 4.3-9.5 9.5-9.5 9.5 4.2 9.5 9.5m4.9 13.6l-6.6-6.6c1.7-1.9 2.7-4.3 2.7-7 0-5.8-4.7-10.5-10.5-10.5s-10.5 4.7-10.5 10.5 4.7 10.5 10.5 10.5c2.7 0 5.2-1 7-2.7l6.6 6.6c.2.2.5.2.7 0 .2-.2.2-.6.1-.8"/></svg><svg width="24" height="44" viewBox="-2 -2 24 44" id="thin-arrow--left"><path fill="#fff" d="M19.8 38.8L1.7 20 19.8 1.2c.1-.1.2-.3.2-.5 0-.4-.3-.7-.7-.7-.2 0-.4.1-.5.2L.2 19.5c-.1.1-.2.3-.2.5s.1.4.2.5l18.6 19.3c.1.1.3.2.5.2.4 0 .7-.3.7-.7 0-.2-.1-.4-.2-.5z"/></svg><svg width="24" height="44" viewBox="-2 -2 24 44" id="thin-arrow--right" x="68"><path fill="#fff" d="M20 20c0-.2-.1-.4-.2-.5L1.2.2C1.1.1.9 0 .7 0 .3 0 0 .3 0 .7c0 .2.1.4.2.5L18.3 20 .2 38.8c-.1.1-.2.3-.2.5 0 .4.3.7.7.7.2 0 .4-.1.5-.2l18.6-19.3c.1-.1.2-.3.2-.5z"/></svg><svg width="15" height="26" viewBox="-2 -2 15 26" id="thin-arrow-small--left" x="137" y="62"><path fill="#fff" d="M10.8 20.8L1.7 11l9.1-9.8c.1-.1.2-.3.2-.5 0-.4-.3-.7-.7-.7-.2 0-.4.1-.5.2L.2 10.5c-.1.1-.2.3-.2.5s.1.4.2.5l9.6 10.3c.1.1.3.2.5.2.4 0 .7-.3.7-.7 0-.2-.1-.4-.2-.5z"/></svg><svg width="15" height="26" viewBox="-2 -2 15 26" id="thin-arrow-small--right" x="99" y="86"><path fill="#fff" d="M.1.7l10 10.3-10 10.3c0 .1-.1.2-.1.3 0 .2.2.4.4.4.1 0 .2-.1.3-.1l10.2-10.6c.1-.1.1-.2.1-.3s-.1-.2-.1-.3L.7.1C.6.1.5 0 .4 0 .2 0 0 .2 0 .4c0 .1.1.2.1.3zm.1.5L9.3 11 .2 20.8c-.1.1-.2.3-.2.5 0 .4.3.7.7.7.2 0 .4-.1.5-.2l9.6-10.3c.1-.1.2-.3.2-.5s-.1-.4-.2-.5L1.2.2C1.1.1.9 0 .7 0 .3 0 0 .3 0 .7c0 .2.1.4.2.5z"/></svg><svg width="26" height="15" viewBox="-491.5 297.5 26 15" id="top-arrow" x="111" y="120"><path fill="#fff" d="M-488.8 310.4l10.3-10 10.3 10c.1 0 .2.1.3.1.2 0 .4-.2.4-.4 0-.1-.1-.2-.1-.3l-10.6-10.2c-.1-.1-.2-.1-.3-.1s-.2.1-.3.1l-10.6 10.2c0 .1-.1.2-.1.3 0 .2.2.4.4.4.1 0 .2-.1.3-.1zm.5-.1l9.8-9.1 9.8 9.1c.1.1.3.2.5.2.4 0 .7-.3.7-.7 0-.2-.1-.4-.2-.5l-10.3-9.6c-.1-.1-.3-.2-.5-.2s-.4.1-.5.2l-10.3 9.6c-.1.1-.2.3-.2.5 0 .4.3.7.7.7.2 0 .4-.1.5-.2z"/></svg><svg width="21" height="21" viewBox="-7 19 21 21" id="twitter" x="176" y="107"><path fill="#7C7D7E" d="M12 24.7c-.6.3-1.3.5-2 .6.7-.4 1.3-1.1 1.5-2-.7.4-1.4.7-2.2.9-.6-.8-1.5-1.2-2.5-1.2-2 0-3.5 1.6-3.5 3.5 0 .3 0 .5.1.8-2.9-.1-5.5-1.5-7.2-3.7-.3.6-.5 1.2-.5 1.8 0 1.2.6 2.3 1.6 2.9-.6 0-1.1-.2-1.6-.4 0 1.7 1.2 3.1 2.8 3.5-.3.1-.6.2-.9.2-.2 0-.4 0-.7-.1.4 1.4 1.7 2.4 3.3 2.5-1.2.9-2.7 1.5-4.3 1.5h-.8c1.5 1 3.4 1.6 5.3 1.6 6.4 0 10-5.4 10-10v-.5c.5-.6 1.1-1.2 1.6-1.9z"/></svg><svg width="30" height="31" viewBox="-2 23 30 31" id="twitter--large" x="121" y="31"><path fill="#7C7D7E" d="M26 30.7c-1 .4-1.6.7-2.7.9 1.1-.7 2-1.8 2.4-3.1-1 .6-2.2 1.1-3.4 1.3-1-1.1-2.4-1.8-4-1.8-3 0-5.4 2.5-5.4 5.6 0 .4 0 .9.1 1.3-4.5-.2-8.5-2.4-11.2-5.8-.5.8-.8 1.8-.8 2.8 0 1.9 1 3.6 2.4 4.6-.9 0-1.7-.3-2.5-.7v.1c0 2.7 1.9 4.9 4.3 5.4-.3.2-.8.3-1.3.3-.3 0-.7 0-1-.1.7 2.2 2.7 3.8 5.1 3.9-1.9 1.5-4.2 2.4-6.7 2.4-.4 0-.9 0-1.3-.1C2.3 49.1 4.8 50 7.9 50c10 0 15.8-8.5 15.8-15.7v-.7c1.1-.8 1.6-1.8 2.3-2.9z"/></svg><svg id="twitter--light" width="21" height="21" viewBox="-83 287 21 21" y="163"><style>.bkst0{fill:#fff}</style><path class="bkst0" d="M-64.1 290.7c-.6.3-1.3.5-2 .6.7-.4 1.3-1.1 1.5-2-.7.4-1.4.7-2.2.9-.6-.8-1.5-1.2-2.5-1.2-2 0-3.5 1.6-3.5 3.5 0 .3 0 .5.1.8-2.9-.1-5.5-1.5-7.2-3.7-.3.6-.5 1.2-.5 1.8 0 1.2.6 2.3 1.6 2.9-.6 0-1.1-.2-1.6-.4 0 1.7 1.2 3.1 2.8 3.5-.3.1-.6.2-.9.2-.2 0-.4 0-.7-.1.4 1.4 1.7 2.4 3.3 2.5-1.2.9-2.7 1.5-4.3 1.5h-.8c1.5 1 3.4 1.6 5.3 1.6 6.4 0 10-5.4 10-10v-.5c.5-.6 1.1-1.2 1.6-1.9z"/></svg><svg width="29" height="38" viewBox="-2 -2 29 38" id="video" x="92"><path fill="#FFF" d="M.5 34c-.1 0-.2 0-.2-.1-.2 0-.3-.2-.3-.4V.5C0 .3.1.1.3.1c.1-.1.3-.1.5 0l24 16.5c.1.1.2.2.2.4s-.1.3-.2.4L.8 33.9c-.1.1-.2.1-.3.1zM1 1.5v31.1L23.6 17 1 1.5z"/></svg><svg width="26" height="26" viewBox="-2 -2 26 26" id="whatsapp--light" x="85" y="120"><path fill-rule="evenodd" clip-rule="evenodd" fill="#FFF" d="M18.8 3.2C16.7 1.1 14 0 11 0 5 0 0 4.9 0 10.9c0 1.9.5 3.8 1.5 5.5L0 22l5.8-1.5c1.6.9 3.4 1.3 5.2 1.3 6 0 11-4.9 11-10.9 0-2.9-1.1-5.6-3.2-7.7zM11 20c-1.6 0-3.2-.4-4.6-1.3l-.3-.2-3.4.9.9-3.3-.2-.3C2.5 14.4 2 12.7 2 11c0-5 4.1-9.1 9.1-9.1 2.4 0 4.7.9 6.4 2.7 1.7 1.7 2.7 4 2.7 6.4-.1 4.9-4.1 9-9.2 9zm5-6.8c-.3-.1-1.6-.8-1.9-.9-.3-.1-.4-.1-.6.1-.2.3-.7.9-.9 1.1-.2.2-.3.2-.6.1s-1.2-.4-2.2-1.4c-.8-.7-1.4-1.6-1.5-1.9-.2-.3 0-.4.1-.6.1-.1.3-.3.4-.5.2-.1.3-.2.4-.4.1-.2 0-.3 0-.5s-.6-1.5-.8-2c-.3-.5-.5-.4-.7-.4h-.5c-.2 0-.5 0-.8.3-.3.3-1 .9-1 2.3 0 1.3 1 2.6 1.1 2.8s1.9 2.9 4.7 4.1c.7.3 1.2.4 1.6.6.7.2 1.3.2 1.7.1.5-.1 1.6-.7 1.8-1.3.2-.6.2-1.2.2-1.3 0-.1-.2-.2-.5-.3z"/></svg></svg>