<svg xmlns="http://www.w3.org/2000/svg" width="78" height="34" viewBox="0 0 78 34"><path d="M11.2.2l-.6.9-.1-.1C9.9.4 9.2 0 8 0 6 0 4.6 1.3 4.6 3.2c0 1.9 1.4 3.1 2.7 4.3C8.9 9 9.8 9.9 9.8 11.7c0 1-.4 1.9-1 2.5-.8.7-1.8 1.1-3 1.1-1.5 0-2.6-.4-3.3-1.1-.7-.7-1.1-1.7-1.1-2.8 0-.8.2-1.5.6-1.9.4-.5.9-.7 1.5-.7.4 0 .6 0 .9.1h.1v.2h-.1c-.7.1-.9.5-.9.9.1.6.5 1 .9 1 .5 0 1-.4 1-1 0-.9-.8-1.6-2-1.6C1.5 8.4 0 9.8 0 11.8s1.7 4.1 5.4 4.1c4.1 0 5.9-2.6 5.9-4.9 0-2.2-1.8-3.8-3.2-5.1-1.4-1.3-2.2-2-2.2-3.4 0-.5.2-1 .5-1.3S7.2.6 7.9.6s1.3.2 1.9.7c.6.5 1.1 1.3 1.7 2.6h.2L11.4.2h-.2zm1.7 6.1l.2.1 2.7-3.7 2.3-.4-2.5 12-2.1.3v.4h5.7l.1-.4-1.9-.3 2.5-12 2 .4 1.4 3.7.2-.1.3-4.3h-9.7zm22.5-3.6l1.5-.3.1-.4h-3.8l-.1.4 1.2.4-4.1 6.1-1.7-6.1 1.7-.4.1-.4h-4.9l-.1.4 1.2.4 2.2 6.5-1 5-1.9.3-.1.4h5.4l.1-.4-1.7-.3 1-5.2zm8.1 11.5l-4.3.5 2.5-12 1.9-.3.1-.4h-5.3l-.1.4 1.6.3-2.4 11.6-1.8.3-.1.4h9.6l1.4-4.3-.3-.1zM55.4 2.4V2h-5.1c-1.3 0-2.3.2-2.9.7-.6.4-1 1.1-1 2 0 1.1.7 1.5 1.3 1.5.5 0 .9-.4.9-.9 0-.4-.3-.8-.8-.8-.2 0-.5.1-.8.4h-.3v-.1c.1-1.2 1.4-2.2 3.7-2.2h1.3l-2.5 11.7-1.9.4v.3h5.4l.1-.4-1.7-.4 2.4-11.5 1.9-.3zM65.1.2l-.6.9-.1-.1c-.6-.6-1.2-1-2.5-1-2 0-3.4 1.3-3.4 3.2 0 1.9 1.4 3.1 2.7 4.3 1.6 1.5 2.5 2.4 2.5 4.2 0 1-.4 1.9-1 2.5-.7.6-1.6 1.1-2.8 1.1-1.5 0-2.6-.4-3.3-1.1-.7-.8-1-1.7-1-2.8 0-.8.2-1.5.6-1.9.4-.5.9-.7 1.5-.7.4 0 .6 0 .9.1h.1v.2h-.1c-.7.1-.9.5-.9.9 0 .5.4.9.9.9s1-.4 1-1c0-.9-.8-1.6-2-1.6-1.9 0-3.4 1.3-3.4 3.4 0 2 1.7 4.1 5.4 4.1 4 0 5.9-2.6 5.9-4.9 0-2.2-1.8-3.8-3.2-5.1-1.4-1.3-2.2-2-2.2-3.4 0-.5.2-1 .5-1.3.3-.3.8-.6 1.5-.6s1.3.2 1.9.7c.6.5 1.1 1.3 1.7 2.6h.2L65.6.1h-.5zm1.8 6.1l.2.1 2.7-3.7 2.3-.4-2.5 12-2 .3-.1.4h5.7l.1-.4-1.9-.3 2.5-12 2 .4 1.4 3.7.2-.1.3-4.3H68z"/><path fill="#fff" d="M11.2 18.2l-.6.9-.1-.1c-.6-.6-1.2-1-2.5-1-2 0-3.4 1.3-3.4 3.2 0 1.9 1.4 3.1 2.7 4.3 1.6 1.5 2.5 2.4 2.5 4.2 0 1-.4 1.9-1 2.5-.8.7-1.8 1.1-3 1.1-1.5 0-2.6-.4-3.3-1.1-.7-.7-1.1-1.7-1.1-2.8 0-.8.2-1.5.6-1.9.4-.5.9-.7 1.5-.7.4 0 .6 0 .9.1h.1v.2h-.1c-.7.1-.9.5-.9.9.1.6.5 1 .9 1 .5 0 1-.4 1-1 0-.9-.8-1.6-2-1.6-1.9 0-3.4 1.3-3.4 3.4 0 2 1.7 4.1 5.4 4.1 4.1 0 5.9-2.6 5.9-4.9 0-2.2-1.8-3.8-3.2-5.1-1.4-1.3-2.2-2-2.2-3.4 0-.5.2-1 .5-1.3s.8-.6 1.5-.6 1.3.2 1.9.7c.6.5 1.1 1.3 1.7 2.6h.2l-.3-3.7h-.2zm1.7 6.1l.2.1 2.7-3.7 2.3-.4-2.5 12-2.1.3v.4h5.7l.1-.4-1.9-.3 2.5-12 2 .4 1.4 3.7.2-.1.3-4.3h-9.7zm22.5-3.6l1.5-.3.1-.4h-3.8l-.1.4 1.2.4-4.1 6.1-1.7-6.1 1.7-.4.1-.4h-4.9l-.1.4 1.2.4 2.2 6.5-1 5-1.9.3-.1.4h5.4l.1-.4-1.7-.3 1-5.2zm8.1 11.5l-4.3.5 2.5-12 1.9-.3.1-.4h-5.3l-.1.4 1.6.3-2.4 11.6-1.8.3-.1.4h9.6l1.4-4.3-.3-.1zm11.9-11.8l.1-.4h-5.1c-1.3 0-2.3.2-2.9.7-.6.4-1 1.1-1 2 0 1.1.7 1.5 1.3 1.5.5 0 .9-.4.9-.9 0-.4-.3-.8-.8-.8-.2 0-.5.1-.8.4h-.3v-.1c.1-1.2 1.4-2.2 3.7-2.2h1.3l-2.5 11.7-1.9.4-.1.3h5.4l.1-.4-1.7-.4 2.4-11.5 1.9-.3zm9.7-2.2l-.6.9-.1-.1c-.6-.6-1.2-1-2.5-1-2 0-3.4 1.3-3.4 3.2 0 1.9 1.4 3.1 2.7 4.3 1.6 1.5 2.5 2.4 2.5 4.2 0 1-.4 1.9-1 2.5-.7.6-1.6 1.1-2.8 1.1-1.5 0-2.6-.4-3.3-1.1-.7-.8-1-1.7-1-2.8 0-.8.2-1.5.6-1.9.4-.5.9-.7 1.5-.7.4 0 .6 0 .9.1h.1v.2h-.1c-.7.1-.9.5-.9.9 0 .5.4.9.9.9s1-.4 1-1c0-.9-.8-1.6-2-1.6-1.9 0-3.4 1.3-3.4 3.4 0 2 1.7 4.1 5.4 4.1 4 0 5.9-2.6 5.9-4.9 0-2.2-1.8-3.8-3.2-5.1-1.4-1.3-2.2-2-2.2-3.4 0-.5.2-1 .5-1.3.3-.3.8-.6 1.5-.6s1.3.2 1.9.7c.6.5 1.1 1.3 1.7 2.6h.2l-.3-3.7h-.5zm1.8 6.1l.2.1 2.7-3.7 2.3-.4-2.5 12-2 .3-.1.4h5.7l.1-.4-1.9-.3 2.5-12 2 .4 1.4 3.7.2-.1.3-4.3H68z"/></svg>