<?xml version="1.0" encoding="utf-8"?>
<!-- Generator: Adobe Illustrator 17.0.0, SVG Export Plug-In . SVG Version: 6.00 Build 0)  -->
<!DOCTYPE svg PUBLIC "-//W3C//DTD SVG 1.1//EN" "http://www.w3.org/Graphics/SVG/1.1/DTD/svg11.dtd" [
	<!ENTITY st0 "fill:#FFFFFF;">
]>
<svg version="1.1" id="Layer_1" xmlns="http://www.w3.org/2000/svg" xmlns:xlink="http://www.w3.org/1999/xlink" x="0px" y="0px"
	 width="100%" height="100%" viewBox="0 0 478.729 58.996"
	 xml:space="preserve">
<path style="&st0;" d="M28.847,16.54l12.475,27.949l12.219-27.702c3.587-8.067,4.885-13.2,5.539-15.816h15.974V4.24
	c-5.133,0.487-6.521,2.527-6.521,6.353c0,0.981,0.08,2.121,0.248,3.348l3.994,32.667c0.565,4.807,2.526,7.67,8.631,8.322v3.164
	H56.483V54.93c4.965,0,7.413-2.702,7.413-7.014c0-0.564-0.08-1.148-0.168-1.804L59.98,12.466L46.861,43.11
	c-2.447,5.778-4.002,9.859-5.54,14.984h-3.348c-1.954-5.441-4.401-10.584-6.353-14.666L16.707,12.545l-4.566,30.23
	c-0.24,1.555-0.328,2.933-0.328,4.17c0,5.459,2.447,7.651,7.829,7.985v3.164H0V54.93c4.975,0,7.086-2.525,7.987-8.48l4.727-31.051
	c0.238-1.458,0.327-2.854,0.327-3.985c0-4.568-1.793-6.856-6.44-7.174V0.971H23.06C24.2,5.213,26.24,10.76,28.847,16.54z
	 M112.381,58.024c-13.04-3.34-22.008-14.189-22.008-27.885C90.373,12.06,103.175,0,118.653,0c3.094,0,6.115,0.248,8.879,0.971
	c12.962,3.349,21.761,13.457,21.761,27.72c0,18.166-12.465,30.304-28.033,30.304C118.168,58.996,115.156,58.765,112.381,58.024z
	 M99.995,24.769c0,11.82,7.492,30.323,22.406,30.323c11.9,0,17.528-10.196,17.528-20.868c0-11.808-7.502-30.31-22.423-30.31
	C105.614,3.914,99.995,14.1,99.995,24.769z M164.614,7.66c-2.685-2.606-4.559-3.102-7.739-3.42V0.971h13.614l42.779,43.448V16.945
	c0-6.511-1.555-12.705-9.949-12.705V0.971h22.663V4.24c-6.273,0-8.967,5.213-8.967,12.705v25.106c0,7.086,0.079,10.672,0.574,16.787
	h-4.073c-2.615-3.5-5.054-5.957-6.927-7.899L171.868,15.24v29.09c0,7.49,3.428,10.6,10.265,10.6v3.164h-23.96V54.93
	c7.263,0,10.187-2.277,10.187-8.817V11.327L164.614,7.66z M255.803,58.024c-13.035-3.34-22.003-14.189-22.003-27.885
	C233.8,12.06,246.595,0,262.076,0c3.093,0,6.114,0.248,8.89,0.971c12.952,3.349,21.751,13.457,21.751,27.72
	c0,18.166-12.457,30.304-28.023,30.304C261.6,58.996,258.578,58.765,255.803,58.024z M243.413,24.769
	c0,11.82,7.495,30.323,22.428,30.323c11.893,0,17.51-10.196,17.51-20.868c0-11.808-7.49-30.31-22.404-30.31
	C249.041,3.914,243.413,14.1,243.413,24.769z M355.075,15.161c-4.33-7.094-13.218-11.248-20.622-11.248
	c-12.227,0-20.373,10.672-20.373,23.63c0,12.792,7.809,27.548,23.218,27.548c9.95,0,14.596-5.866,18.342-14.826h3.993l-3.34,14.577
	c-5.302,2.368-13.693,4.153-20.055,4.153c-5.302,0-10.178-0.653-14.983-2.687c-9.701-4.081-17.036-12.704-17.036-25.426
	C304.219,11.981,318.479,0,336.803,0c4.33,0,12.228,0.654,17.282,1.952l3.675,12.881L355.075,15.161z M369.599,4.24V0.971h27.796
	V4.24c-7.739,0-9.543,3.251-9.543,8.067v31.21c0,7.67,2.863,11.007,11.168,11.007h1.361c7.333,0,12.139-2.861,16.378-10.354h3.501
	l-3.501,13.924h-47.16V54.93c7.915-0.494,9.543-2.277,9.543-9.54V12.634C379.142,7.006,377.18,4.24,369.599,4.24z M426.214,58.094
	V54.93c6.449,0,8.959-2.453,8.959-8.48V12.793c0-5.54-2.191-8.553-8.959-8.553V0.971h47.94v12.803h-3.006
	c-2.933-7.58-6.431-9.127-13.447-9.127h-13.729v22.985h8.074c7.919,0,10.372-1.309,10.779-7.259h3.358v18.25h-3.358
	c-0.972-6.273-3.356-7.333-10.619-7.333h-8.234v12.722c0,8.058,2.297,10.512,9.79,10.512h3.692c9.383,0,13.447-2.454,17.44-10.354
	h3.835l-3.835,13.924H426.214z"/>
</svg>
