<?xml version="1.0" encoding="utf-8"?>
<!-- Generator: Adobe Illustrator 20.0.0, SVG Export Plug-In . SVG Version: 6.00 Build 0)  -->
<svg version="1.1" xmlns="http://www.w3.org/2000/svg" xmlns:xlink="http://www.w3.org/1999/xlink" x="0px" y="0px"
	 viewBox="0 0 128 32" style="enable-background:new 0 0 128 32;" xml:space="preserve">
<style type="text/css">
	.st0{display:none;}
	.st1{display:inline;}
	.st2{opacity:0.5;fill:#FFFFFF;}
	.st3{fill:#FFFFFF;}
	.st4{opacity:0.5;}
</style>
<g id="Layer_2" class="st0">
	<rect class="st1" width="128" height="32"/>
</g>
<g id="Layer_1">
	<path id="White_2_" class="st2" d="M14.2,1H1.8C1.3,1,1,1.3,1,1.8v12.5C1,14.7,1.3,15,1.8,15h6.7V9.6H6.7V7.5h1.8V5.9
		c0-1.8,1.1-2.8,2.7-2.8c0.8,0,1.4,0.1,1.6,0.1v1.9l-1.1,0c-0.9,0-1,0.4-1,1v1.3h2.1l-0.3,2.1h-1.8V15h3.6c0.4,0,0.8-0.3,0.8-0.8
		V1.8C15,1.3,14.7,1,14.2,1z"/>
	<path id="White_1_" class="st3" d="M14.2,17H1.8C1.3,17,1,17.3,1,17.8v12.5C1,30.7,1.3,31,1.8,31h6.7v-5.4H6.7v-2.1h1.8v-1.6
		c0-1.8,1.1-2.8,2.7-2.8c0.8,0,1.4,0.1,1.6,0.1v1.9l-1.1,0c-0.9,0-1,0.4-1,1v1.3h2.1l-0.3,2.1h-1.8V31h3.6c0.4,0,0.8-0.3,0.8-0.8
		V17.8C15,17.3,14.7,17,14.2,17z"/>
	<path class="st3" d="M21.4,29.7c5.3,0,8.2-4.4,8.2-8.2c0-0.1,0-0.2,0-0.4c0.6-0.4,1-0.9,1.4-1.5c-0.5,0.2-1.1,0.4-1.6,0.5
		c0.6-0.4,1-0.9,1.3-1.6c-0.6,0.3-1.2,0.6-1.8,0.7c-0.5-0.6-1.3-0.9-2.1-0.9c-1.6,0-2.9,1.3-2.9,2.9c0,0.2,0,0.4,0.1,0.7
		c-2.4-0.1-4.5-1.3-5.9-3c-0.2,0.4-0.4,0.9-0.4,1.4c0,1,0.5,1.9,1.3,2.4c-0.5,0-0.9-0.1-1.3-0.4c0,0,0,0,0,0c0,1.4,1,2.6,2.3,2.8
		c-0.2,0.1-0.5,0.1-0.8,0.1c-0.2,0-0.4,0-0.5-0.1c0.4,1.1,1.4,2,2.7,2c-1,0.8-2.2,1.2-3.6,1.2c-0.2,0-0.5,0-0.7,0
		C18.3,29.2,19.8,29.7,21.4,29.7"/>
	<path class="st2" d="M21.4,13.7c5.3,0,8.2-4.4,8.2-8.2c0-0.1,0-0.2,0-0.4c0.6-0.4,1-0.9,1.4-1.5c-0.5,0.2-1.1,0.4-1.6,0.5
		c0.6-0.4,1-0.9,1.3-1.6c-0.6,0.3-1.2,0.6-1.8,0.7c-0.5-0.6-1.3-0.9-2.1-0.9c-1.6,0-2.9,1.3-2.9,2.9c0,0.2,0,0.4,0.1,0.7
		c-2.4-0.1-4.5-1.3-5.9-3c-0.2,0.4-0.4,0.9-0.4,1.4c0,1,0.5,1.9,1.3,2.4c-0.5,0-0.9-0.1-1.3-0.4c0,0,0,0,0,0c0,1.4,1,2.6,2.3,2.8
		c-0.2,0.1-0.5,0.1-0.8,0.1c-0.2,0-0.4,0-0.5-0.1c0.4,1.1,1.4,2,2.7,2c-1,0.8-2.2,1.2-3.6,1.2c-0.2,0-0.5,0-0.7,0
		C18.3,13.2,19.8,13.7,21.4,13.7"/>
	<path class="st3" d="M46,17H34c-0.6,0-1,0.5-1,1v12c0,0.6,0.5,1,1,1H46c0.6,0,1-0.5,1-1V18C47,17.5,46.5,17,46,17z M37.2,28.9h-2.1
		v-6.7h2.1V28.9z M36.1,21.3c-0.7,0-1.2-0.5-1.2-1.2c0-0.7,0.5-1.2,1.2-1.2c0.7,0,1.2,0.5,1.2,1.2C37.3,20.8,36.8,21.3,36.1,21.3z
		 M44.9,28.9h-2.1v-3.2c0-0.8,0-1.8-1.1-1.8c-1.1,0-1.2,0.8-1.2,1.7v3.3h-2.1v-6.7h2v0.9h0c0.3-0.5,1-1.1,2-1.1
		c2.1,0,2.5,1.4,2.5,3.2V28.9z"/>
	<path class="st2" d="M46,1H34c-0.6,0-1,0.5-1,1v12c0,0.6,0.5,1,1,1H46c0.6,0,1-0.5,1-1V2C47,1.5,46.5,1,46,1z M37.2,12.9h-2.1V6.2
		h2.1V12.9z M36.1,5.3c-0.7,0-1.2-0.5-1.2-1.2c0-0.7,0.5-1.2,1.2-1.2c0.7,0,1.2,0.5,1.2,1.2C37.3,4.8,36.8,5.3,36.1,5.3z M44.9,12.9
		h-2.1V9.7c0-0.8,0-1.8-1.1-1.8c-1.1,0-1.2,0.8-1.2,1.7v3.3h-2.1V6.2h2v0.9h0c0.3-0.5,1-1.1,2-1.1c2.1,0,2.5,1.4,2.5,3.2V12.9z"/>
	<g>
		<path class="st3" d="M56,18.3c1.9,0,2.1,0,2.8,0c0.7,0,1.1,0.1,1.3,0.2c0.3,0.1,0.6,0.3,0.8,0.5c0.2,0.2,0.4,0.5,0.5,0.8
			c0.1,0.2,0.2,0.6,0.2,1.3c0,0.7,0,1,0,2.8s0,2.1,0,2.8c0,0.7-0.1,1.1-0.2,1.3c-0.1,0.3-0.3,0.6-0.5,0.8c-0.2,0.2-0.5,0.4-0.8,0.5
			c-0.2,0.1-0.6,0.2-1.3,0.2c-0.7,0-1,0-2.8,0s-2.1,0-2.8,0c-0.7,0-1.1-0.1-1.3-0.2c-0.3-0.1-0.6-0.3-0.8-0.5
			c-0.2-0.2-0.4-0.5-0.5-0.8c-0.1-0.2-0.2-0.6-0.2-1.3c0-0.7,0-1,0-2.8s0-2.1,0-2.8c0-0.7,0.1-1.1,0.2-1.3c0.1-0.3,0.3-0.6,0.5-0.8
			c0.2-0.2,0.5-0.4,0.8-0.5c0.2-0.1,0.6-0.2,1.3-0.2C53.9,18.3,54.1,18.3,56,18.3 M56,17c-1.9,0-2.1,0-2.9,0c-0.7,0-1.3,0.2-1.7,0.3
			c-0.5,0.2-0.9,0.4-1.2,0.8c-0.4,0.4-0.6,0.8-0.8,1.2c-0.2,0.4-0.3,1-0.3,1.7c0,0.7,0,1,0,2.9c0,1.9,0,2.1,0,2.9
			c0,0.7,0.2,1.3,0.3,1.7c0.2,0.5,0.4,0.9,0.8,1.2c0.4,0.4,0.8,0.6,1.2,0.8c0.4,0.2,1,0.3,1.7,0.3c0.7,0,1,0,2.9,0s2.1,0,2.9,0
			c0.7,0,1.3-0.2,1.7-0.3c0.5-0.2,0.9-0.4,1.2-0.8c0.4-0.4,0.6-0.8,0.8-1.2c0.2-0.4,0.3-1,0.3-1.7c0-0.7,0-1,0-2.9s0-2.1,0-2.9
			c0-0.7-0.2-1.3-0.3-1.7c-0.2-0.5-0.4-0.9-0.8-1.2c-0.4-0.4-0.8-0.6-1.2-0.8c-0.4-0.2-1-0.3-1.7-0.3C58.1,17,57.9,17,56,17L56,17z"
			/>
		<path class="st3" d="M56,20.4c-2,0-3.6,1.6-3.6,3.6s1.6,3.6,3.6,3.6s3.6-1.6,3.6-3.6S58,20.4,56,20.4z M56,26.3
			c-1.3,0-2.3-1-2.3-2.3s1-2.3,2.3-2.3s2.3,1,2.3,2.3S57.3,26.3,56,26.3z"/>
		<circle class="st3" cx="59.7" cy="20.3" r="0.8"/>
	</g>
	<g class="st4">
		<path class="st3" d="M56,2.3c1.9,0,2.1,0,2.8,0c0.7,0,1.1,0.1,1.3,0.2c0.3,0.1,0.6,0.3,0.8,0.5c0.2,0.2,0.4,0.5,0.5,0.8
			c0.1,0.2,0.2,0.6,0.2,1.3c0,0.7,0,1,0,2.8s0,2.1,0,2.8c0,0.7-0.1,1.1-0.2,1.3c-0.1,0.3-0.3,0.6-0.5,0.8c-0.2,0.2-0.5,0.4-0.8,0.5
			c-0.2,0.1-0.6,0.2-1.3,0.2c-0.7,0-1,0-2.8,0s-2.1,0-2.8,0c-0.7,0-1.1-0.1-1.3-0.2c-0.3-0.1-0.6-0.3-0.8-0.5
			c-0.2-0.2-0.4-0.5-0.5-0.8c-0.1-0.2-0.2-0.6-0.2-1.3c0-0.7,0-1,0-2.8s0-2.1,0-2.8c0-0.7,0.1-1.1,0.2-1.3c0.1-0.3,0.3-0.6,0.5-0.8
			c0.2-0.2,0.5-0.4,0.8-0.5c0.2-0.1,0.6-0.2,1.3-0.2C53.9,2.3,54.1,2.3,56,2.3 M56,1c-1.9,0-2.1,0-2.9,0c-0.7,0-1.3,0.2-1.7,0.3
			c-0.5,0.2-0.9,0.4-1.2,0.8c-0.4,0.4-0.6,0.8-0.8,1.2c-0.2,0.4-0.3,1-0.3,1.7c0,0.7,0,1,0,2.9c0,1.9,0,2.1,0,2.9
			c0,0.7,0.2,1.3,0.3,1.7c0.2,0.5,0.4,0.9,0.8,1.2c0.4,0.4,0.8,0.6,1.2,0.8c0.4,0.2,1,0.3,1.7,0.3c0.7,0,1,0,2.9,0s2.1,0,2.9,0
			c0.7,0,1.3-0.2,1.7-0.3c0.5-0.2,0.9-0.4,1.2-0.8c0.4-0.4,0.6-0.8,0.8-1.2c0.2-0.4,0.3-1,0.3-1.7c0-0.7,0-1,0-2.9s0-2.1,0-2.9
			c0-0.7-0.2-1.3-0.3-1.7c-0.2-0.5-0.4-0.9-0.8-1.2c-0.4-0.4-0.8-0.6-1.2-0.8c-0.4-0.2-1-0.3-1.7-0.3C58.1,1,57.9,1,56,1L56,1z"/>
		<path class="st3" d="M56,4.4c-2,0-3.6,1.6-3.6,3.6s1.6,3.6,3.6,3.6S59.6,10,59.6,8S58,4.4,56,4.4z M56,10.3c-1.3,0-2.3-1-2.3-2.3
			s1-2.3,2.3-2.3s2.3,1,2.3,2.3S57.3,10.3,56,10.3z"/>
		<circle class="st3" cx="59.7" cy="4.3" r="0.8"/>
	</g>
	<g id="Lozenge">
		<g>
			<path class="st3" d="M78.9,21.2c0,0-0.1-1-0.6-1.4c-0.5-0.6-1.1-0.6-1.4-0.6c-2-0.1-4.9-0.1-4.9-0.1h0c0,0-2.9,0-4.9,0.1
				c-0.3,0-0.9,0-1.4,0.6c-0.4,0.4-0.6,1.4-0.6,1.4S65,22.3,65,23.5v1.1c0,1.1,0.1,2.3,0.1,2.3s0.1,1,0.6,1.4
				c0.5,0.6,1.2,0.5,1.5,0.6c1.1,0.1,4.8,0.1,4.8,0.1s2.9,0,4.9-0.1c0.3,0,0.9,0,1.4-0.6c0.4-0.4,0.6-1.4,0.6-1.4s0.1-1.1,0.1-2.3
				v-1.1C79,22.3,78.9,21.2,78.9,21.2z M70.6,25.8l0-3.9l3.8,2L70.6,25.8z"/>
		</g>
	</g>
	<g id="Lozenge_2_" class="st4">
		<g>
			<path class="st3" d="M78.9,5.2c0,0-0.1-1-0.6-1.4c-0.5-0.6-1.1-0.6-1.4-0.6c-2-0.1-4.9-0.1-4.9-0.1h0c0,0-2.9,0-4.9,0.1
				c-0.3,0-0.9,0-1.4,0.6c-0.4,0.4-0.6,1.4-0.6,1.4S65,6.3,65,7.5v1.1c0,1.1,0.1,2.3,0.1,2.3s0.1,1,0.6,1.4c0.5,0.6,1.2,0.5,1.5,0.6
				c1.1,0.1,4.8,0.1,4.8,0.1s2.9,0,4.9-0.1c0.3,0,0.9,0,1.4-0.6c0.4-0.4,0.6-1.4,0.6-1.4S79,9.7,79,8.5V7.5
				C79,6.3,78.9,5.2,78.9,5.2z M70.6,9.8l0-3.9l3.8,2L70.6,9.8z"/>
		</g>
	</g>
	<g>
		<path class="st3" d="M88.8,24.5c-0.2,0-0.4,0.2-0.4,0.4c0,0.2,0.2,0.4,0.4,0.4c0.2,0,0.4-0.2,0.4-0.4
			C89.3,24.7,89.1,24.5,88.8,24.5z"/>
		<path class="st3" d="M91.5,24.5c-0.2,0-0.4,0.2-0.4,0.4c0,0.2,0.2,0.4,0.4,0.4c0.2,0,0.4-0.2,0.4-0.4
			C91.9,24.7,91.7,24.5,91.5,24.5z"/>
		
			<ellipse transform="matrix(3.104582e-02 -0.9995 0.9995 3.104582e-02 60.2926 105.6839)" class="st3" cx="84.7" cy="21.7" rx="0.5" ry="0.5"/>
		<path class="st3" d="M87.9,22.3c0.3,0,0.5-0.2,0.5-0.5c0-0.3-0.2-0.5-0.5-0.5c-0.3,0-0.5,0.2-0.5,0.5C87.4,22,87.6,22.3,87.9,22.3
			z"/>
		<path class="st3" d="M92.9,17h-9.8c-1.2,0-2.1,0.9-2.1,2.1v9.8c0,1.2,0.9,2.1,2.1,2.1h9.8c1.2,0,2.1-0.9,2.1-2.1v-9.8
			C95,17.9,94.1,17,92.9,17z M85.1,26.2c-0.1,0-0.3,0-0.4,0.1c-0.4,0.2-0.8,0.5-1.2,0.8c0.1-0.4,0.1-0.7,0.2-1
			c0.1-0.2,0-0.4-0.2-0.5c-1.4-1-1.9-2.4-1.5-3.9c0.4-1.4,1.4-2.2,2.7-2.6c1.8-0.6,3.8,0,4.9,1.4c0.4,0.5,0.6,1.1,0.7,1.8
			c-1.1,0.1-2.1,0.4-2.9,1.2c-0.8,0.8-1.2,1.7-1.1,2.9C85.9,26.3,85.5,26.2,85.1,26.2z M93.1,28c-0.3,0.3-0.5,0.6-0.3,1
			c0,0.1,0,0.2,0.1,0.3c-0.4-0.2-0.7-0.4-1-0.4c-0.3,0-0.7,0.2-1.1,0.2c-1.1,0.1-2.1-0.2-2.9-1c-1.6-1.4-1.3-3.7,0.5-4.8
			c1.6-1,4-0.7,5.1,0.8C94.4,25.3,94.3,27,93.1,28z"/>
	</g>
	<g class="st4">
		<path class="st3" d="M88.8,8.5c-0.2,0-0.4,0.2-0.4,0.4c0,0.2,0.2,0.4,0.4,0.4c0.2,0,0.4-0.2,0.4-0.4C89.3,8.7,89.1,8.5,88.8,8.5z"
			/>
		<path class="st3" d="M91.5,8.5c-0.2,0-0.4,0.2-0.4,0.4c0,0.2,0.2,0.4,0.4,0.4c0.2,0,0.4-0.2,0.4-0.4C91.9,8.7,91.7,8.5,91.5,8.5z"
			/>
		
			<ellipse transform="matrix(3.104582e-02 -0.9995 0.9995 3.104582e-02 76.2849 90.1806)" class="st3" cx="84.7" cy="5.7" rx="0.5" ry="0.5"/>
		<path class="st3" d="M87.9,6.3c0.3,0,0.5-0.2,0.5-0.5c0-0.3-0.2-0.5-0.5-0.5c-0.3,0-0.5,0.2-0.5,0.5C87.4,6,87.6,6.3,87.9,6.3z"/>
		<path class="st3" d="M92.9,1h-9.8C81.9,1,81,1.9,81,3.1v9.8c0,1.2,0.9,2.1,2.1,2.1h9.8c1.2,0,2.1-0.9,2.1-2.1V3.1
			C95,1.9,94.1,1,92.9,1z M85.1,10.2c-0.1,0-0.3,0-0.4,0.1c-0.4,0.2-0.8,0.5-1.2,0.8c0.1-0.4,0.1-0.7,0.2-1c0.1-0.2,0-0.4-0.2-0.5
			c-1.4-1-1.9-2.4-1.5-3.9c0.4-1.4,1.4-2.2,2.7-2.6c1.8-0.6,3.8,0,4.9,1.4c0.4,0.5,0.6,1.1,0.7,1.8c-1.1,0.1-2.1,0.4-2.9,1.2
			c-0.8,0.8-1.2,1.7-1.1,2.9C85.9,10.3,85.5,10.2,85.1,10.2z M93.1,12c-0.3,0.3-0.5,0.6-0.3,1c0,0.1,0,0.2,0.1,0.3
			c-0.4-0.2-0.7-0.4-1-0.4c-0.3,0-0.7,0.2-1.1,0.2c-1.1,0.1-2.1-0.2-2.9-1c-1.6-1.4-1.3-3.7,0.5-4.8c1.6-1,4-0.7,5.1,0.8
			C94.4,9.3,94.3,11,93.1,12z"/>
	</g>
	<g>
		<path class="st3" d="M102.9,28.8c-2.3,0.2-4.3-0.8-4.5-2.3c-0.2-1.5,1.6-2.9,3.9-3.2c2.3-0.2,4.3,0.8,4.5,2.3
			C107,27.2,105.2,28.6,102.9,28.8 M107.5,23.8c-0.2-0.1-0.3-0.1-0.2-0.4c0.2-0.6,0.2-1,0-1.4c-0.5-0.6-1.7-0.6-3.1,0
			c0,0-0.4,0.2-0.3-0.2c0.2-0.7,0.2-1.3-0.2-1.6c-0.8-0.8-2.8,0-4.6,1.8c-1.3,1.3-2.1,2.7-2.1,3.9c0,2.3,3,3.7,5.9,3.7
			c3.8,0,6.3-2.2,6.3-4C109.2,24.6,108.3,24,107.5,23.8"/>
		<path class="st3" d="M110,19.6c-0.9-1-2.3-1.4-3.5-1.1h0c-0.3,0.1-0.5,0.3-0.4,0.6c0.1,0.3,0.3,0.5,0.6,0.4
			c0.9-0.2,1.9,0.1,2.5,0.8c0.7,0.7,0.8,1.7,0.6,2.6l0,0c-0.1,0.3,0.1,0.6,0.3,0.7c0.3,0.1,0.6-0.1,0.7-0.3c0,0,0,0,0,0
			C111.2,22,111,20.6,110,19.6"/>
		<path class="st3" d="M108.6,20.8c-0.4-0.5-1.1-0.7-1.7-0.6c-0.2,0.1-0.4,0.3-0.4,0.5c0.1,0.2,0.3,0.4,0.5,0.4v0
			c0.3-0.1,0.6,0,0.8,0.3c0.2,0.2,0.3,0.6,0.2,0.9h0c-0.1,0.2,0.1,0.5,0.3,0.6c0.2,0.1,0.5-0.1,0.6-0.3
			C109.2,22,109.1,21.3,108.6,20.8"/>
		<path class="st3" d="M103,26.1c-0.1,0.1-0.3,0.2-0.4,0.1c-0.1-0.1-0.2-0.2-0.1-0.3c0.1-0.1,0.3-0.2,0.4-0.1
			C103,25.8,103.1,25.9,103,26.1 M102.3,27c-0.2,0.4-0.7,0.5-1.1,0.3c-0.4-0.2-0.5-0.6-0.2-0.9c0.2-0.3,0.7-0.5,1-0.4
			C102.4,26.3,102.5,26.7,102.3,27 M103.1,24.5c-1.1-0.3-2.3,0.3-2.8,1.2c-0.5,1,0,2.1,1.1,2.5c1.2,0.4,2.5-0.2,3-1.3
			C104.8,25.9,104.3,24.8,103.1,24.5"/>
	</g>
	<g class="st4">
		<path class="st3" d="M102.9,12.8c-2.3,0.2-4.3-0.8-4.5-2.3c-0.2-1.5,1.6-2.9,3.9-3.2c2.3-0.2,4.3,0.8,4.5,2.3
			C107,11.2,105.2,12.6,102.9,12.8 M107.5,7.8c-0.2-0.1-0.3-0.1-0.2-0.4c0.2-0.6,0.2-1,0-1.4c-0.5-0.6-1.7-0.6-3.1,0
			c0,0-0.4,0.2-0.3-0.2c0.2-0.7,0.2-1.3-0.2-1.6c-0.8-0.8-2.8,0-4.6,1.8C97.8,7.3,97,8.7,97,9.9c0,2.3,3,3.7,5.9,3.7
			c3.8,0,6.3-2.2,6.3-4C109.2,8.6,108.3,8,107.5,7.8"/>
		<path class="st3" d="M110,3.6c-0.9-1-2.3-1.4-3.5-1.1h0c-0.3,0.1-0.5,0.3-0.4,0.6c0.1,0.3,0.3,0.5,0.6,0.4
			c0.9-0.2,1.9,0.1,2.5,0.8c0.7,0.7,0.8,1.7,0.6,2.6l0,0c-0.1,0.3,0.1,0.6,0.3,0.7c0.3,0.1,0.6-0.1,0.7-0.3c0,0,0,0,0,0
			C111.2,6,111,4.6,110,3.6"/>
		<path class="st3" d="M108.6,4.8c-0.4-0.5-1.1-0.7-1.7-0.6c-0.2,0.1-0.4,0.3-0.4,0.5c0.1,0.2,0.3,0.4,0.5,0.4v0
			c0.3-0.1,0.6,0,0.8,0.3c0.2,0.2,0.3,0.6,0.2,0.9h0c-0.1,0.2,0.1,0.5,0.3,0.6c0.2,0.1,0.5-0.1,0.6-0.3C109.2,6,109.1,5.3,108.6,4.8
			"/>
		<path class="st3" d="M103,10.1c-0.1,0.1-0.3,0.2-0.4,0.1c-0.1-0.1-0.2-0.2-0.1-0.3c0.1-0.1,0.3-0.2,0.4-0.1
			C103,9.8,103.1,9.9,103,10.1 M102.3,11c-0.2,0.4-0.7,0.5-1.1,0.3c-0.4-0.2-0.5-0.6-0.2-0.9c0.2-0.3,0.7-0.5,1-0.4
			C102.4,10.3,102.5,10.7,102.3,11 M103.1,8.5c-1.1-0.3-2.3,0.3-2.8,1.2c-0.5,1,0,2.1,1.1,2.5c1.2,0.4,2.5-0.2,3-1.3
			C104.8,9.9,104.3,8.8,103.1,8.5"/>
	</g>
</g>
</svg>
