<?xml version="1.0" encoding="utf-8"?>
<!-- Generator: Adobe Illustrator 19.1.0, SVG Export Plug-In . SVG Version: 6.00 Build 0)  -->
<svg version="1.1" id="Layer_1" xmlns="http://www.w3.org/2000/svg" xmlns:xlink="http://www.w3.org/1999/xlink" x="0px" y="0px"
	 width="134px" height="56px" viewBox="-238 411 134 56" style="enable-background:new -238 411 134 56;" xml:space="preserve">
<style type="text/css">
	.st0{fill:#181818;}
	.st1{fill:#2ABEAA;}
</style>
<g>
	<path class="st0" d="M-235.5,431.2c0-1.4,0.4-2.5,1-3.3s1.5-1.3,2.6-1.3c0.7,0,1,0,1.6,0.2h0.2v0.4h-0.2c-1.2,0.2-1.5,0.9-1.5,1.6
		c0,0.9,0.7,1.5,1.5,1.5c0.9,0,1.7-0.7,1.7-1.7c0-1.7-1.4-2.8-3.5-2.8c-3.3,0-5.9,2.3-5.9,5.9s3,7.2,9.3,7.2c7,0,10.2-4.5,10.2-8.6
		c0-3.9-3.1-6.6-5.6-8.8c-2.4-2.2-3.7-3.5-3.7-6c0-0.9,0.3-1.7,0.8-2.4c0.6-0.6,1.4-1,2.6-1s2.2,0.4,3.2,1.3s1.9,2.4,3,4.5l0.4-0.1
		l-0.4-6.5h-0.5l-1.1,1.7l-0.2-0.2c-1-1-2.1-1.8-4.3-1.8c-3.5,0-5.9,2.4-5.9,5.6c0,3.4,2.3,5.4,4.6,7.5c2.8,2.7,4.2,4.3,4.2,7.3
		c0,1.7-0.6,3.3-1.8,4.4c-1.2,1.1-2.8,1.9-4.9,1.9c-2.6,0-4.4-0.7-5.7-1.9C-234.9,434.7-235.5,433-235.5,431.2"/>
	<polygon class="st0" points="-211,435.3 -214.6,436 -214.7,436.6 -204.8,436.6 -204.7,435.9 -208,435.3 -203.6,414.8 -200.2,415.5 
		-197.8,421.7 -197.4,421.7 -196.9,414.3 -213.7,414.3 -215.7,421.7 -215.3,421.7 -210.7,415.4 -206.8,414.8 	"/>
	<polygon class="st0" points="-185.3,426.5 -177,415.6 -174.4,414.9 -174.3,414.3 -180.8,414.3 -180.9,415 -178.8,415.6 
		-185.8,426.2 -188.9,415.8 -186,414.9 -185.8,414.3 -194.2,414.3 -194.3,415 -192.2,415.8 -188.5,426.9 -190.3,435.3 -193.5,436 
		-193.6,436.6 -184.4,436.6 -184.2,435.9 -187.2,435.3 	"/>
	<polygon class="st0" points="-158.2,429.1 -163,435.2 -170.4,436 -166.1,415.6 -163,414.9 -162.8,414.3 -171.9,414.3 -172,414.9 
		-169.2,415.6 -173.3,435.3 -176.4,436 -176.6,436.6 -160.1,436.6 -157.8,429.2 	"/>
	<path class="st0" d="M-153.2,435.3l-3.2,0.6l-0.1,0.6h9.3l0.2-0.6l-3-0.6l4.1-19.8l3.2-0.6l0.2-0.6h-8.8c-2.2,0-3.9,0.4-5.1,1.2
		c-1.1,0.8-1.7,1.9-1.7,3.5c0,2,1.2,2.7,2.2,2.7c0.9,0,1.5-0.7,1.5-1.5c0-0.8-0.6-1.5-1.4-1.5c-0.4,0-0.8,0.2-1.3,0.6l-0.1,0.1h-0.6
		v-0.2c0.2-2.1,2.4-3.9,6.4-3.9h2.3L-153.2,435.3L-153.2,435.3z"/>
	<path class="st0" d="M-142.7,431.2c0-1.4,0.4-2.5,1-3.3s1.5-1.3,2.6-1.3c0.7,0,1,0,1.6,0.2h0.2v0.4h-0.2c-1.2,0.2-1.5,0.9-1.5,1.6
		c0,0.9,0.7,1.5,1.5,1.5c0.9,0,1.7-0.7,1.7-1.7c0-1.7-1.4-2.8-3.5-2.8c-3.3,0-5.9,2.3-5.9,6c0,3.5,3,7.1,9.3,7.2
		c7,0,10.2-4.5,10.2-8.6c0-3.9-3.1-6.6-5.6-8.8c-2.4-2.2-3.7-3.5-3.7-6c0-0.9,0.3-1.7,0.8-2.4c0.6-0.6,1.4-1,2.6-1
		c1.2,0,2.2,0.4,3.2,1.3c1,0.9,1.9,2.4,3,4.5l0.4-0.1l-0.4-6.5h-0.5l-1.1,1.7l-0.2-0.2c-1.1-1-2.2-1.7-4.4-1.7
		c-3.5,0-5.9,2.4-5.9,5.6c0,3.4,2.3,5.4,4.6,7.5c2.8,2.7,4.2,4.3,4.2,7.3c0,1.7-0.6,3.3-1.8,4.4c-1.2,1.1-2.8,1.9-4.9,1.9
		c-2.6,0-4.4-0.7-5.7-1.9C-142.1,434.7-142.7,433-142.7,431.2"/>
	<path class="st0" d="M-122.8,421.7l0.4,0.1l4.7-6.4l3.9-0.7l-4.3,20.6l-3.5,0.7l-0.1,0.6h9.8l0.1-0.7l-3.2-0.6l4.3-20.6l3.5,0.8
		l2.4,6.3l0.3-0.1l0.5-7.3h-16.8L-122.8,421.7z"/>
</g>
<g>
	<path class="st1" d="M-235.5,459.2c0-1.4,0.4-2.5,1-3.3s1.5-1.3,2.6-1.3c0.7,0,1,0,1.6,0.2h0.2v0.4h-0.2c-1.2,0.2-1.5,0.9-1.5,1.6
		c0,0.9,0.7,1.5,1.5,1.5c0.9,0,1.7-0.7,1.7-1.7c0-1.7-1.4-2.8-3.5-2.8c-3.3,0-5.9,2.3-5.9,5.9s3,7.2,9.3,7.2c7,0,10.2-4.5,10.2-8.6
		c0-3.9-3.1-6.6-5.6-8.8c-2.4-2.2-3.7-3.5-3.7-6c0-0.9,0.3-1.7,0.8-2.4c0.6-0.6,1.4-1,2.6-1s2.2,0.4,3.2,1.3s1.9,2.4,3,4.5l0.4-0.1
		l-0.4-6.5h-0.5l-1.1,1.7l-0.2-0.2c-1-1-2.1-1.8-4.3-1.8c-3.5,0-5.9,2.4-5.9,5.6c0,3.4,2.3,5.4,4.6,7.5c2.8,2.7,4.2,4.3,4.2,7.3
		c0,1.7-0.6,3.3-1.8,4.4c-1.2,1.1-2.8,1.9-4.9,1.9c-2.6,0-4.4-0.7-5.7-1.9C-234.9,462.7-235.5,461-235.5,459.2"/>
	<polygon class="st1" points="-211,463.3 -214.6,464 -214.7,464.6 -204.8,464.6 -204.7,463.9 -208,463.3 -203.6,442.8 -200.2,443.5 
		-197.8,449.7 -197.4,449.7 -196.9,442.3 -213.7,442.3 -215.7,449.7 -215.3,449.7 -210.7,443.4 -206.8,442.8 	"/>
	<polygon class="st1" points="-185.3,454.5 -177,443.6 -174.4,442.9 -174.3,442.3 -180.8,442.3 -180.9,443 -178.8,443.6 
		-185.8,454.2 -188.9,443.8 -186,442.9 -185.8,442.3 -194.2,442.3 -194.3,443 -192.2,443.8 -188.5,454.9 -190.3,463.3 -193.5,464 
		-193.6,464.6 -184.4,464.6 -184.2,463.9 -187.2,463.3 	"/>
	<polygon class="st1" points="-158.2,457.1 -163,463.2 -170.4,464 -166.1,443.6 -163,442.9 -162.8,442.3 -171.9,442.3 -172,442.9 
		-169.2,443.6 -173.3,463.3 -176.4,464 -176.6,464.6 -160.1,464.6 -157.8,457.2 	"/>
	<path class="st1" d="M-153.2,463.3l-3.2,0.6l-0.1,0.6h9.3l0.2-0.6l-3-0.6l4.1-19.8l3.2-0.6l0.2-0.6h-8.8c-2.2,0-3.9,0.4-5.1,1.2
		c-1.1,0.8-1.7,1.9-1.7,3.5c0,2,1.2,2.7,2.2,2.7c0.9,0,1.5-0.7,1.5-1.5c0-0.8-0.6-1.5-1.4-1.5c-0.4,0-0.8,0.2-1.3,0.6l-0.1,0.1h-0.6
		v-0.2c0.2-2.1,2.4-3.9,6.4-3.9h2.3L-153.2,463.3L-153.2,463.3z"/>
	<path class="st1" d="M-142.7,459.2c0-1.4,0.4-2.5,1-3.3s1.5-1.3,2.6-1.3c0.7,0,1,0,1.6,0.2h0.2v0.4h-0.2c-1.2,0.2-1.5,0.9-1.5,1.6
		c0,0.9,0.7,1.5,1.5,1.5c0.9,0,1.7-0.7,1.7-1.7c0-1.7-1.4-2.8-3.5-2.8c-3.3,0-5.9,2.3-5.9,6c0,3.5,3,7.1,9.3,7.2
		c7,0,10.2-4.5,10.2-8.6c0-3.9-3.1-6.6-5.6-8.8c-2.4-2.2-3.7-3.5-3.7-6c0-0.9,0.3-1.7,0.8-2.4c0.6-0.6,1.4-1,2.6-1
		c1.2,0,2.2,0.4,3.2,1.3c1,0.9,1.9,2.4,3,4.5l0.4-0.1l-0.4-6.5h-0.5l-1.1,1.7l-0.2-0.2c-1.1-1-2.2-1.7-4.4-1.7
		c-3.5,0-5.9,2.4-5.9,5.6c0,3.4,2.3,5.4,4.6,7.5c2.8,2.7,4.2,4.3,4.2,7.3c0,1.7-0.6,3.3-1.8,4.4c-1.2,1.1-2.8,1.9-4.9,1.9
		c-2.6,0-4.4-0.7-5.7-1.9C-142.1,462.7-142.7,461-142.7,459.2"/>
	<path class="st1" d="M-122.8,449.7l0.4,0.1l4.7-6.4l3.9-0.7l-4.3,20.6l-3.5,0.7l-0.1,0.6h9.8l0.1-0.7l-3.2-0.6l4.3-20.6l3.5,0.8
		l2.4,6.3l0.3-0.1l0.5-7.3h-16.8L-122.8,449.7z"/>
</g>
</svg>
