<svg xmlns="http://www.w3.org/2000/svg" width="489" height="100" viewBox="295 91 489 100"><g fill="#FFF"><path d="M304 162.5c0-4.9 1.3-9.1 3.7-11.8 2.3-2.9 5.7-4.5 9.5-4.5 2.4 0 3.7.2 6 .8l.6.2v1.5l-.8.2c-4.2.6-5.5 3.2-5.5 5.7 0 3.1 2.6 5.3 5.5 5.3 3.2 0 6.3-2.6 6.3-6.2 0-6-5.1-9.9-12.6-9.9-11.9 0-21.5 8.3-21.5 21.2 0 12.8 10.8 25.9 34 25.9 25.6 0 37.2-16.2 37.2-30.9 0-14.1-11.2-23.7-20.3-31.8-8.9-7.9-13.7-12.6-13.7-21.5 0-3.2 1-6.2 3.1-8.4 2.1-2.1 5.2-3.4 9.3-3.4 4.4 0 8.2 1.3 11.8 4.7 3.5 3.4 6.8 8.4 10.9 16.2l1.5-.3-1.6-23.1h-1.8l-3.9 6-.8-.6c-3.7-3.7-7.6-6.5-15.7-6.5-12.6 0-21.4 8.4-21.5 19.9 0 12 8.6 19.3 16.9 27 10.3 9.7 15.4 15.2 15.4 26.4 0 6.1-2.3 11.7-6.4 15.7-4.2 4-10.3 6.6-17.9 6.6-9.3 0-16.1-2.6-20.8-7-4.8-4.5-6.9-10.6-6.9-17.4M393.1 177.4l-12.9 2.4-.3 2.2h35.9l.4-2.4-11.8-2.3 15.7-73.9 12.6 2.6 8.9 22.5 1.1-.3 1.9-26.6h-61.3l-7.1 26.6 1.3.3 17-22.8 14.2-2.4-15.6 74.1zm93.8-31.7l30.4-39.4 9.5-2.4.5-2.1h-24l-.4 2.3 7.6 2.4-25.5 37.9-11.2-37.4 10.8-3.1.6-2.1h-30.6l-.5 2.3 7.6 2.9 13.5 40.1-6.3 30.3-11.8 2.4-.5 2.2h33.7l.6-2.4-10.8-2.3 6.8-31.6zm99.2 9.3l-17.6 22.1-27 2.9 15.7-73.7 11.6-2.4.6-2.1H536l-.4 2.1 10.3 2.5-15.1 71-11.4 2.4-.5 2.2h60.4l8.3-26.8-1.5-.2zm18.3 22.4l-11.8 2.3-.5 2.1h33.8l.6-2.1-10.8-2.3 15.1-71.1 11.8-2.3.6-2.1h-32.1c-8.2 0-14.4 1.5-18.5 4.4-4 2.8-6.3 6.8-6.3 12.5 0 7.1 4.4 9.5 8.2 9.5 3.4 0 5.7-2.6 5.7-5.5 0-2.8-2.2-5.2-5-5.2-1.5 0-3.1.6-4.8 2.3l-.3.3h-2.2v-.8c.6-7.5 8.9-13.9 23.2-13.8h8.4l-15.1 71.8zm38.4-14.9c0-4.9 1.3-9.1 3.7-11.8 2.3-2.9 5.7-4.5 9.5-4.5 2.4 0 3.7.2 6 .8l.6.2v1.5l-.8.2c-4.2.6-5.5 3.2-5.5 5.7 0 3.1 2.6 5.3 5.7 5.3 3.2 0 6.3-2.6 6.3-6.2 0-6-5.1-9.9-12.6-9.9-12.1 0-21.5 8.3-21.5 21.4 0 12.6 10.8 25.7 34 25.9 25.4 0 37.2-16.2 37.2-30.9 0-14.1-11.2-23.7-20.3-31.8-8.9-7.9-13.7-12.6-13.7-21.5 0-3.2 1-6.2 3.1-8.4 2.1-2.1 5.2-3.4 9.3-3.4 4.4 0 8.2 1.3 11.8 4.7 3.5 3.4 6.8 8.4 10.9 16.2l1.5-.3-1.6-23.1h-1.8l-3.9 6-.8-.6c-3.9-3.4-7.9-6.2-16-6.2-12.6 0-21.4 8.4-21.5 19.9 0 12 8.6 19.3 16.9 27 10.3 9.7 15.4 15.2 15.4 26.4 0 6.1-2.3 11.7-6.4 15.7-4.2 4-10.3 6.6-17.9 6.6-9.3 0-16.1-2.6-20.8-7-4.6-5-6.8-11.1-6.8-17.9M715.4 128.4l1.3.3 17-22.8 14.2-2.4-15.7 74-12.8 2.4-.4 2.2h36l.4-2.4-11.8-2.3 15.7-74 12.6 2.8 8.9 22.5 1.1-.3 1.9-26.6h-61.3l-7.1 26.6z"/></g></svg>