<svg xmlns="http://www.w3.org/2000/svg" viewBox="0 0 86 86.128"><defs><style>.a{fill:#3e3e3e;}.b{fill:#474747;}.c{fill:#9e9e9e;}.d,.h,.l,.m,.n,.o,.p,.q,.r,.s,.t,.u,.v{fill:none;stroke-miterlimit:10;}.d{stroke:#3f383a;stroke-width:1.214px;stroke-dasharray:0.485 2.913 0.485 2.913 0.485 3.398;}.e{fill:#b72027;}.f{fill:#fff;}.g{fill:#606062;}.h{stroke:#bfc2d1;stroke-width:1.101px;stroke-dasharray:0.44 2.642 0.44 2.642 0.44 3.083;}.i{fill:#afaeae;}.j{fill:#ededed;}.k{fill:#5b5b5b;}.l{stroke:#707070;stroke-width:1.238px;stroke-dasharray:0.499 1.498 0.499 1.498 0.499 1.498;}.m,.n,.o{stroke:#7f161b;}.m,.n,.o,.p,.q,.r,.s,.t,.u,.v{stroke-width:0.967px;}.n{stroke-dasharray:0.444 1.332 0.444 1.332;}.o{stroke-dasharray:0.444 1.332 0.444 1.332 0.444 1.332;}.p,.q,.r,.s,.t,.u,.v{stroke:#4f4f4f;}.q{stroke-dasharray:0.343 1.028 0.343 1.028;}.r{stroke-dasharray:0.343 1.028 0.343 1.028 0.343 1.028;}.s{stroke-dasharray:0.418 1.254 0.418 1.254;}.t{stroke-dasharray:0.418 1.254 0.418 1.254 0.418 1.254;}.u{stroke-dasharray:0.471 1.414 0.471 1.414;}.v{stroke-dasharray:0.471 1.414 0.471 1.414 0.471 1.414;}.w{fill:#b7b7b7;}.x{fill:#dad9d8;}.y{fill:#d42224;}.z{fill:#fbfaf9;}.aa{fill:#cfcece;}.ab{fill:#bcbcbc;}</style></defs><title>watch face for export</title><path d="M86,42.856A42.9,42.9,0,0,1,42.888,86.128C19.06,86.128,0,67.26,0,42.92S19.221,0,43.048,0,86,18.515,86,42.856Z"/><path class="a" d="M84.859,42.861A41.764,41.764,0,0,1,42.891,84.986,41.528,41.528,0,0,1,1.141,42.924c0-23.695,18.711-41.781,41.906-41.781S84.859,19.166,84.859,42.861Z"/><path d="M77.672,42.861c0,19.662-15.5,34.531-34.75,34.531S8.359,62.554,8.359,42.892A34.288,34.288,0,0,1,42.984,8.174,34.314,34.314,0,0,1,77.672,42.861Z"/><path class="b" d="M72.453,42.83c0,16.4-13.445,30.125-29.5,30.125S13.328,59.231,13.328,42.83s13.6-28.937,29.656-28.937S72.453,26.429,72.453,42.83Z"/><path d="M69.609,42.736c0,14.875-12.251,27.313-26.812,27.313S16.209,57.609,16.209,42.733a26.315,26.315,0,0,1,26.656-26.25C57.427,16.483,69.609,27.861,69.609,42.736Z"/><circle class="c" cx="42.953" cy="56.924" r="9.763"/><circle class="d" cx="42.953" cy="56.924" r="8.434" transform="translate(-17.392 94.92) rotate(-85.159)"/><circle cx="42.953" cy="56.924" r="7.062"/><polygon class="e" points="42.38 48.851 42.397 59.345 42.43 59.493 42.675 59.582 43.052 59.582 43.314 59.582 43.379 59.463 43.379 48.792 42.921 48.201 42.38 48.851"/><circle class="e" cx="42.909" cy="56.483" r="1.322"/><circle cx="42.909" cy="56.483" r="0.457"/><path class="f" d="M20.169,43.142A8.857,8.857,0,1,0,37.4,40.268l-8.78-5.962A8.85,8.85,0,0,0,20.169,43.142Z"/><path class="f" d="M29.026,34.285c-0.138,0-.273.014-0.409,0.021l8.78,5.962A8.854,8.854,0,0,0,29.026,34.285Z"/><circle class="g" cx="29.026" cy="43.142" r="8.857"/><circle class="h" cx="29.026" cy="43.142" r="7.651" transform="translate(-16.412 68.424) rotate(-85.159)"/><circle cx="29.026" cy="43.142" r="6.406"/><polygon class="i" points="28.506 35.819 28.521 45.339 28.551 45.473 28.774 45.554 29.115 45.554 29.353 45.554 29.412 45.446 29.412 35.765 28.997 35.229 28.506 35.819"/><circle class="i" cx="28.986" cy="42.743" r="1.199"/><circle cx="28.986" cy="42.743" r="0.415"/><circle class="c" cx="42.953" cy="29.174" r="9.763"/><circle class="d" cx="42.953" cy="29.174" r="8.434" transform="translate(10.259 69.512) rotate(-85.159)"/><circle cx="42.953" cy="29.174" r="7.062"/><polygon class="e" points="42.38 21.101 42.397 31.595 42.43 31.743 42.675 31.832 43.052 31.832 43.314 31.832 43.379 31.713 43.379 21.042 42.921 20.451 42.38 21.101"/><circle class="e" cx="42.909" cy="28.733" r="1.322"/><circle cx="42.909" cy="28.733" r="0.457"/><rect class="j" x="54.349" y="39.09" width="11.417" height="8.917" rx="2.25" ry="2.25"/><path class="k" d="M63.516,39.34a2.006,2.006,0,0,1,2,2v4.417a2.006,2.006,0,0,1-2,2H56.6a2.006,2.006,0,0,1-2-2V41.34a2.006,2.006,0,0,1,2-2h6.917m0-.5H56.6a2.5,2.5,0,0,0-2.5,2.5v4.417a2.5,2.5,0,0,0,2.5,2.5h6.917a2.5,2.5,0,0,0,2.5-2.5V41.34a2.5,2.5,0,0,0-2.5-2.5h0Z"/><path class="l" d="M74.854,48.825A32.428,32.428,0,1,1,11.1,36.911a32.1,32.1,0,0,1,37.849-25.6A31.974,31.974,0,0,1,74.854,48.825Z"/><path class="m" d="M17.7,44.93q0.007,0.1.015,0.2"/><path class="n" d="M17.853,46.452a25.234,25.234,0,0,0,.548,2.838"/><path class="o" d="M18.572,49.931a25.456,25.456,0,0,0,1.67,4.354"/><path class="m" d="M20.541,54.873l0.089,0.169"/><path class="p" d="M68.21,40.463q-0.009-.1-0.019-0.2"/><path class="q" d="M68.064,39.247q-0.161-1.11-.419-2.19"/><path class="r" d="M67.522,36.561a24.639,24.639,0,0,0-1.159-3.407"/><path class="p" d="M66.16,32.687l-0.079-.174"/><path class="p" d="M65.289,54.956l0.088-.167"/><path class="s" d="M65.932,53.664a25.6,25.6,0,0,0,1.008-2.522"/><path class="t" d="M67.135,50.546a26.038,26.038,0,0,0,.74-2.971q0.124-.661.213-1.319"/><path class="p" d="M68.164,45.633q0.011-.1.02-0.19"/><path class="p" d="M20.4,31.385l-0.087.172"/><path class="u" d="M19.718,32.839a25.32,25.32,0,0,0-1.044,2.879"/><path class="v" d="M18.484,36.4q-0.243.916-.422,1.868a26.247,26.247,0,0,0-.387,3.011"/><path class="p" d="M17.635,41.983q0,0.1-.007.19"/><path class="w" d="M40.974,2.2l-0.051.075-0.063,2.2,1.969,1.153,0.11,0.008,1.945-1.161,0.008-2.251Zm1.957,2.945-0.055-.016-1.553-.918V3.817L44.445,3.84l0.008,0.345ZM41.3,3.354l0.008-.745L44.437,2.6l0.016,0.753H41.3Z"/><polygon class="w" points="42.374 6.209 43.496 6.193 43.504 7.001 42.367 7.017 42.374 6.209"/><polygon class="w" points="48.939 3.001 48.845 3.197 48.822 3.377 48.916 3.479 49.096 3.495 49.316 3.534 49.465 3.581 49.488 3.683 49.229 5.111 49.198 5.221 49.284 5.323 49.496 5.354 49.7 5.354 50.022 3.66 50.335 3.707 50.61 3.77 50.696 3.754 50.774 3.597 50.751 3.417 50.429 3.291 50.108 3.268 49.802 3.221 49.488 3.15 49.222 3.072 49.065 3.009 48.939 3.001"/><path class="w" d="M52.4,3.777L52.249,3.66,51.959,3.6l-0.243-.024L50.484,5.346l-0.031.118,0.086,0.125,0.2,0.063,0.188-.008,0.2-.369,0.831,0.18,0.055,0.008,0.118,0.094L52.194,5.73v0.18L52.3,5.989l0.251,0.063,0.11-.016L52.7,5.95Zm-0.408,1.3-0.549-.141-0.023-.071,0.471-.737,0.031-.055L51.99,4.13s0.063,0.9.063,0.925S51.99,5.079,51.99,5.079Z"/><polygon class="w" points="53.104 4.962 53.033 5.432 52.978 5.73 53.002 5.911 53.143 6.083 53.347 6.232 53.967 6.468 54.374 6.523 54.641 6.523 54.814 6.366 54.931 6.17 54.971 5.942 54.908 5.864 54.571 5.754 54.508 5.848 54.414 6.005 54.335 6.06 54.069 6.044 53.849 5.989 53.637 5.879 53.52 5.77 53.472 5.597 53.52 5.338 53.653 4.883 53.739 4.687 53.896 4.601 54.1 4.577 54.359 4.632 54.602 4.742 54.727 4.828 54.774 5.025 54.751 5.134 54.9 5.244 55.072 5.252 55.214 5.244 55.269 5.072 55.261 4.844 55.206 4.656 55.072 4.523 54.908 4.405 54.665 4.303 54.359 4.225 54.1 4.177 53.857 4.177 53.582 4.201 53.433 4.303 53.3 4.515 53.206 4.703 53.104 4.962"/><path class="w" d="M55.763,4.781l-0.675,1.8L55.072,6.7l0.071,0.118,0.125,0.071,0.157,0.024L55.543,6.9l0.031-.086L55.825,6.1l0.016-.063,0.1,0.008,0.824,0.369L56.814,6.46v0.1l-0.047.118-0.188.478-0.024.125,0.063,0.094L56.8,7.456a1.216,1.216,0,0,0,.141.016,0.22,0.22,0,0,0,.11-0.063l0.643-1.827,0.016-.11-0.047-.086-0.125-.094-0.165-.039-0.094.031-0.251.682-0.078.063-0.11-.055-0.761-.259L55.99,5.652l0.047-.165,0.071-.243,0.071-.2,0.039-.165-0.125-.094-0.165-.063H55.771Z"/><polygon class="w" points="58.069 5.566 58.555 5.77 58.586 5.817 58.704 6.679 58.735 6.781 58.806 6.781 59.582 6.24 59.676 6.185 59.818 6.225 60.014 6.35 60.116 6.491 60.037 6.554 59.112 7.103 58.986 7.134 58.829 7.268 58.727 7.409 58.578 7.785 58.531 7.958 58.422 8.083 58.257 8.068 58.045 7.958 57.998 7.817 58.053 7.605 58.288 7.181 58.28 7.017 58.045 5.699 58.037 5.589 58.069 5.566"/><path class="w" d="M59.48,8.3l0.894-1.6,0.11-.039a1.013,1.013,0,0,1,.18.024s0.071,0.039.094,0.055a1.61,1.61,0,0,0,.149.063l0.149,0.118L61.1,7.009,61,8.577l0.063-.031,1.153-.957,0.1-.024a0.335,0.335,0,0,1,.133.024c0.031,0.024.2,0.11,0.2,0.11L62.774,7.77l0.094,0.141,0.016,0.133-0.047.188-0.118.212L62.045,9.738l-0.063.086-0.1.031-0.157-.063-0.149-.149-0.024-.1,0.094-.2,0.565-1,0.047-.086-0.071-.024-0.11.11-0.745.549-0.22.188L61.025,9.2l-0.1.047-0.118.008-0.133-.031-0.141-.094A0.961,0.961,0,0,1,60.5,9c0-.024.094-1.341,0.094-1.341L60.618,7.4V7.323L60.5,7.511l-0.188.329L59.9,8.672l-0.11.063L59.653,8.7l-0.141-.086-0.071-.063Z"/><path class="w" d="M63.386,8.256l-1.1,1.686-0.024.118s0.11,0.1.133,0.118l1.153,0.745,0.118,0.024a0.115,0.115,0,0,0,.094-0.031,1.064,1.064,0,0,1,.125-0.2l-0.055-.125-0.11-.125-0.69-.431L62.955,10,62.931,9.9l0.055-.133,0.141-.188,0.055-.055,0.071,0.024,0.722,0.5,0.1,0.039,0.11-.008,0.086-.149a0.58,0.58,0,0,0-.024-0.141c-0.016-.024-0.125-0.133-0.125-0.133L63.465,9.26l-0.039-.11,0.031-.133,0.118-.11,0.063-.071L63.7,8.844l0.471,0.29,0.3,0.212,0.125,0.086,0.125-.047L64.8,9.252l0.008-.22-0.141-.118-1.122-.667-0.1-.031Z"/><path class="w" d="M65.018,9.268l-0.157.22V9.574l0.094,0.11,0.157,0.141,0.173,0.1,0.063,0.055-0.063.1-0.871,1.224-0.047.11s0.133,0.133.149,0.157a1.012,1.012,0,0,0,.133.1l0.141,0.063,0.086-.1,0.894-1.278,0.071-.055,0.125,0.055,0.3,0.243,0.118,0.047a1.021,1.021,0,0,1,.094-0.047,0.88,0.88,0,0,0,.118-0.149l0.031-.125-0.071-.11-1.373-.973-0.125-.016Z"/><path class="w" d="M68.21,11.589l-0.18-.212s-1-.753-1.012-0.776a0.494,0.494,0,0,0-.11-0.071l-0.055.063L65.559,12.13l-0.024.094L65.669,12.4a1.819,1.819,0,0,0,.165.141,0.575,0.575,0,0,0,.173-0.008l0.282-.384,0.071-.094,0.1-.031,0.118,0.094,0.392,0.369,0.055,0.078v0.118l-0.086.125-0.118.18-0.086.118,0.016,0.118,0.22,0.2,0.1,0.063,0.118-.11,0.243-.322,0.071-.1V12.648l-0.016-.078H67.6l0.18,0.008,0.149-.11,0.2-.212,0.118-.243s0.016-.188.016-0.235A0.946,0.946,0,0,0,68.21,11.589Zm-0.588.431-0.078.094-0.188.031-0.18-.063-0.322-.275-0.165-.094,0.008-.157,0.361-.424,0.1,0.086,0.11,0.086,0.2,0.133,0.133,0.11,0.125,0.165,0.016,0.141Z"/><path class="w" d="M69.88,12.923l-0.5-.455-0.392-.329a0.53,0.53,0,0,0-.118-0.063,0.963,0.963,0,0,0-.1.016l-0.023.031-1.3,1.42-0.047.078,0.031,0.149,0.11,0.133L68.5,14.711l0.11,0.078,0.1-.031a0.719,0.719,0,0,0,.1-0.11l0.047-.141-0.047-.118-0.753-.651L68,13.652l0.078-.078,0.227-.212,0.055-.008,0.086,0.024,0.188,0.165,0.424,0.416,0.118,0.078L69.261,14l0.094-.1,0.055-.11-0.086-.149-0.6-.518-0.086-.078a0.251,0.251,0,0,1,0-.078,1.534,1.534,0,0,1,.078-0.133l0.125-.133,0.1-.008,0.1,0.055,0.706,0.643,0.063,0.055,0.1-.078,0.118-.125,0.016-.125Z"/><path class="w" d="M72.8,18.06l-0.157-.125L72.6,17.848l0.039-.063L73.559,17l0.125-.11-0.039-.125-0.235-.3a0.768,0.768,0,0,0-.149-0.1,1.243,1.243,0,0,1-.2-0.149l-0.11-.031-2.1-.361H70.727L70.5,16l-0.008.047,0.047,0.133,1.082,1.231,0.1,0.11L71.8,17.6l-0.031.149-0.133.071-0.118.1L71.5,18.06,71.7,18.3l0.086,0.118h0.141l0.125-.118,0.149-.141,0.086-.024L72.351,18.2l0.188,0.227,0.094,0.11,0.071-.016,0.071-.071,0.133-.125-0.016-.149Zm-0.51-.737-0.125.055-0.1-.071-0.745-.878-0.063-.071,0.071-.039,1.561,0.3,0.047,0.016,0.055,0.047Z"/><path class="w" d="M75.967,19.8l-0.157-.314L75.6,19.15l-0.659-.816-0.188-.212-0.18-.094S74.414,18,74.39,18L74.2,18l-0.251.047-1,.729-0.141.133-0.094.212a1.5,1.5,0,0,0,.031.235,2.124,2.124,0,0,1,.055.251,0.956,0.956,0,0,0,.086.188c0.023,0.016.957,1.255,0.957,1.255L74.1,21.3l0.173,0.078,0.2,0.047,0.165-.031,0.173-.039,0.094-.078,0.157-.118,0.188-.118,0.259-.173,0.2-.157,0.2-.2,0.063-.165,0.039-.282Zm-0.5.267-0.125.133-0.408.329-0.259.165-0.188.118H74.312l-0.133-.039-0.22-.251-0.212-.3L73.425,19.8l-0.133-.18s-0.047-.157-0.047-0.18,0.031-.188.031-0.188l0.557-.424,0.282-.212,0.18-.047,0.125-.023,0.133,0.031L74.7,18.7l0.62,0.863,0.133,0.227,0.024,0.165Z"/><polygon class="w" points="71.457 21.181 72.006 20.789 72.069 20.766 72.21 20.899 72.672 21.55 72.704 21.707 72.602 21.793 72.335 22.021 72.202 22.13 72.069 22.091 71.496 21.346 71.433 21.252 71.457 21.181"/><path class="w" d="M77.849,22.687L77.574,22.2l-0.635-.973-0.2-.18-0.157-.055s-0.22-.023-0.259-0.023-0.2.031-.2,0.031l-1.082.627-0.133.157-0.133.188-0.039.227,0.016,0.274,0.729,1.263,0.173,0.243,0.212,0.227,0.227,0.141,0.18,0.047,0.282-.008,0.345-.133,0.282-.18a5.971,5.971,0,0,1,.518-0.322,0.667,0.667,0,0,0,.157-0.188l0.078-.275V23.009C77.935,22.977,77.849,22.687,77.849,22.687Zm-0.51.557-0.18.149-0.4.235-0.29.149H76.335l-0.173.008-0.118-.094-0.2-.251-0.259-.416-0.267-.486-0.071-.173,0.008-.11,0.1-.118,0.173-.125,0.486-.306,0.188-.094,0.173-.055,0.133-.008L76.633,21.6l0.188,0.212,0.533,0.918,0.078,0.243L77.449,23.1Z"/><path class="w" d="M78.445,25.66l0.188-.094,0.165-.047h0.227L79.2,25.55l0.2,0.165,0.259,0.455,0.173,0.322L80,26.923l0.078,0.251,0.071,0.133,0.024,0.227,0.008,0.29L80.108,28l-0.118.141-0.2.133-0.282.063L79.3,28.311l-0.078-.055-0.047.039-0.031.173L79,28.617l-0.125.11-0.243.063-0.251.024-0.173-.071-0.251-.188-0.141-.212-0.392-.729-0.267-.706-0.047-.227,0.008-.259,0.086-.227,0.157-.133,0.3-.118,0.1-.008,0.078,0.039,0.086,0.141,0.031,0.165,0.008,0.157-0.149.1-0.086.094-0.063.063-0.008.133,0.094,0.243,0.3,0.745L78.131,28l0.133,0.149,0.094,0.055h0.133l0.133-.031,0.086-.118a1.511,1.511,0,0,0,.039-0.157c0-.024-0.071-0.251-0.071-0.251l-0.3-.612-0.024-.165,0.094-.1,0.141-.047H78.72l0.086,0.055,0.11,0.251L79.1,27.527l0.078,0.118,0.125,0.086,0.133,0.016,0.11-.055,0.11-.1,0.008-.188L79.6,27.158l-0.345-.776-0.078-.125-0.086-.078-0.11-.039-0.141.024-0.118.055L78.625,26.2l-0.188-.384-0.024-.11Z"/><path class="w" d="M81.418,31.032l-0.039-.361-0.243-.729-0.188-.494a4.381,4.381,0,0,0-.243-0.384,1.936,1.936,0,0,1-.173-0.133l-0.212-.039H80.155l-0.22.031-0.314.071-0.737.259-0.165.1-0.141.188-0.063.18-0.024.29L78.563,30.4l0.071,0.243,0.384,1.075,0.173,0.243,0.2,0.2,0.165,0.055,0.212,0.047,0.173-.008,0.243-.078,0.408-.118,0.29-.11,0.2-.071,0.29-.314,0.071-.2Zm-0.51.235-0.165.125-0.251.1-0.471.133-0.212.047-0.141.008L79.535,31.6l-0.1-.118-0.11-.212-0.243-.761-0.118-.337L78.978,30l0.039-.094,0.086-.078,0.094-.047,0.588-.2,0.18-.078,0.2-.024,0.18,0.008L80.5,29.6l0.133,0.282,0.243,0.761,0.063,0.274,0.024,0.2Z"/><path class="w" d="M76.759,31.048l0.353-.133a0.981,0.981,0,0,1,.141-0.047c0.024,0,.149-0.008.149-0.008l0.071,0.055,0.2,0.549,0.086,0.282-0.008.18-0.227.086-0.267.078-0.149.055-0.094-.016L76.963,32,76.7,31.244l-0.016-.133Z"/><path class="w" d="M82.28,34.052l-0.345-1.239-0.165-.243-0.141-.078L81.418,32.4l-0.125-.039-0.243.031s-0.212.039-.235,0.039-0.761.18-.761,0.18l-0.235.094-0.18.149-0.125.3-0.008.2L79.559,33.9l0.2,0.831,0.18,0.51L80.084,35.5l0.188,0.1,0.188,0.078H80.72c0.024,0,.392-0.055.392-0.055l0.369-.071,0.345-.055,0.212-.11,0.133-.133,0.18-.337V34.491Zm-0.455.745-0.125.078-0.188.086-0.471.1-0.337.047-0.2-.016L80.367,35l-0.078-.149-0.133-.518L80.069,34.1l-0.039-.243-0.047-.337,0.008-.173,0.078-.086,0.376-.118,0.282-.078L81,33l0.188-.031L81.4,32.993l0.141,0.149s0.063,0.2.078,0.22,0.2,0.761.2,0.761l0.031,0.227,0.008,0.282Z"/><path class="w" d="M80.382,37.589l0.392-.047,0.212-.008,0.2,0.024,0.2,0.118,0.141,0.243,0.086,0.2,0.063,0.251,0.078,0.5,0.024,0.29s0.086,0.275.086,0.3,0.063,0.22.063,0.22l0.086,0.1,0.141,0.047h0.18l0.133-.063,0.094-.11,0.016-.157-0.024-.816-0.071-.447-0.094-.125-0.11-.047H82.131l-0.173-.016L81.9,38l-0.039-.118V37.511l0.086-.047,0.165-.031,0.2-.008,0.235,0.094L82.7,37.636l0.118,0.22,0.141,0.408,0.078,0.925-0.008.557-0.086.29-0.267.227-0.22.118-0.337-.016-0.282-.055-0.251-.29-0.118-.22L81.41,39.5,81.2,38.381l-0.055-.125-0.11-.094L80.9,38.154l-0.086.031,0.008,0.157,0.173,1.616,0.047,0.3-0.031.188-0.094.1-0.133-.008-0.157-.016-0.063-.094-0.251-2.722V37.636Z"/><polygon class="w" points="78.618 42.044 79.245 42.036 79.331 42.068 79.394 42.146 79.425 42.632 79.425 42.954 79.386 43.189 79.167 43.236 78.79 43.213 78.594 43.166 78.594 43.032 78.555 42.083 78.618 42.044"/><path class="w" d="M83.073,42.515l-0.039-.2-1.427-1.765-0.4-.008-0.063.078,0.016,1.945-0.055.094H80.625l-0.023.086,0.039,0.447,0.047,0.071,0.5,0.016,0.016,0.478L81.3,43.84l0.212-.008,0.1-.055V43.323l0.031-.063,1.365,0.016,0.078-.086Zm-1.4.173-0.086-.039V41.276l1.075,1.341,0.023,0.063Z"/><path class="w" d="M83.1,44.93l-0.086-.322-0.2-.212-0.243-.086-0.251-.055-0.682-.047-0.549-.023-0.086.039-0.141.086-0.188.251-0.078.2-0.1.494-0.039.494-0.016.816,0.024,0.173,0.055,0.149L80.6,47.048,80.767,47.2l0.188,0.094L81.5,47.4l0.455,0.031,0.314-.008,0.306-.055,0.188-.2,0.141-.243,0.086-.29,0.125-1.263Zm-0.5,1.059-0.031.416-0.071.212-0.078.157-0.157.063-0.314.008-0.408-.031-0.353-.055L81.01,46.64l-0.086-.118-0.031-.212,0.086-1.051,0.039-.2,0.063-.188,0.1-.071,0.071-.008,0.361-.008,0.282-.008,0.337,0.055,0.188,0.063,0.125,0.071,0.071,0.2,0.008,0.3Z"/><path class="w" d="M82.382,50.4l-0.094-.188-0.118-.149-0.188-.125-0.243-.086-0.463-.1-0.565-.125H80.6l-0.235.039-0.188.133L80,50.06l-0.18.361-0.188.745-0.086.494-0.024.526,0.071,0.2,0.2,0.243,0.22,0.118,0.345,0.1,0.463,0.118,0.424,0.078,0.267-.024,0.227-.157,0.267-.322,0.141-.416,0.2-.816,0.071-.557Zm-0.525.518-0.071.533-0.118.447-0.063.259-0.11.165-0.125.055-0.235.008-0.376-.071L80.351,52.2l-0.2-.086-0.1-.188-0.016-.22,0.047-.337,0.141-.6,0.055-.235,0.094-.173,0.141-.094,0.078,0.008a1.105,1.105,0,0,1,.29-0.008c0.055,0.023.494,0.133,0.494,0.133l0.22,0.055,0.173,0.118L81.88,50.7Z"/><polygon class="w" points="77.049 53.111 77.284 53.142 77.614 53.276 77.731 53.346 77.786 53.393 77.637 53.864 77.52 54.225 77.465 54.366 77.402 54.444 77.222 54.428 76.916 54.311 76.751 54.248 76.688 54.17 76.712 53.997 76.876 53.456 76.939 53.268 77.002 53.142 77.049 53.111"/><path class="w" d="M81.4,53.77l-0.125-.149-0.11-.094L81,53.425l-0.22-.086-0.235-.086-0.635-.212H79.755l-0.18.031-0.212.071-0.125.118-0.133.22-0.118.251-0.235.7-0.125.424-0.086.549v0.267l0.2,0.251,0.125,0.141,0.282,0.126,0.392,0.157,0.376,0.133,0.369,0.039,0.345-.11,0.2-.235L81.01,55.9l0.259-.674,0.165-.525,0.039-.376,0.008-.275ZM80.782,55.2l-0.149.384-0.133.2-0.118.118H80.1l-0.329-.141-0.447-.173-0.18-.1-0.094-.157-0.008-.141,0.071-.408,0.133-.424s0.1-.251.1-0.275,0.1-.267.1-0.267l0.125-.125,0.133-.039h0.063l0.4,0.125,0.3,0.055,0.243,0.125,0.18,0.094L81,54.193l0.016,0.094Z"/><polygon class="w" points="77.331 58.162 77.723 57.252 77.857 56.97 78.029 56.75 78.155 56.632 78.374 56.562 78.571 56.538 78.727 56.562 78.939 56.632 79.104 56.727 79.19 56.828 79.3 56.977 79.355 57.213 79.355 57.44 79.261 57.848 79.072 58.507 78.931 58.876 78.916 59.017 78.955 59.189 79.065 59.283 79.182 59.315 79.99 57.377 80.053 57.236 80.147 57.213 80.249 57.213 80.398 57.299 80.437 57.417 80.414 57.589 79.339 59.958 79.229 60.013 79.104 59.966 78.9 59.903 78.735 59.801 78.516 59.628 78.429 59.479 78.382 59.268 78.406 58.954 78.476 58.758 78.782 57.887 78.837 57.66 78.845 57.534 78.845 57.425 78.814 57.307 78.735 57.221 78.625 57.189 78.5 57.142 78.382 57.142 78.288 57.174 78.21 57.26 77.951 57.879 77.786 58.248 77.723 58.397 77.708 58.538 77.802 58.656 77.927 58.727 78.037 58.797 78.1 58.86 78.076 59.048 77.99 59.276 77.904 59.417 77.7 59.401 77.59 59.33 77.425 59.197 77.3 59.017 77.237 58.852 77.229 58.491 77.284 58.256 77.331 58.162"/><polygon class="w" points="73.606 60.821 73.99 60.107 74.108 59.997 74.21 59.997 74.445 60.138 74.641 60.303 74.743 60.413 74.712 60.593 74.586 60.828 74.39 61.15 74.304 61.315 74.186 61.393 74.029 61.323 73.661 61.079 73.559 60.985 73.606 60.821"/><polygon class="w" points="71.12 64.428 71.622 63.738 71.739 63.66 71.841 63.683 72.233 63.981 72.343 64.083 72.414 64.17 72.335 64.327 72.108 64.617 71.896 64.876 71.763 65.056 71.629 65.103 71.527 65.048 71.214 64.766 71.112 64.656 71.041 64.523 71.12 64.428"/><path class="w" d="M77.261,62.844l-0.22-.188s-0.361-.235-0.4-0.275-0.549-.314-0.549-0.314l-0.133-.047-0.165-.008H75.669l-0.188.039-0.173.118-0.149.141-0.322.424-0.533.855-0.1.235-0.055.212,0.008,0.227L74.2,64.421l0.039,0.118,0.149,0.2,0.18,0.118,0.557,0.408,0.282,0.173,0.212,0.094,0.173-.016,0.227-.023,0.141-.118,0.18-.18,0.282-.345,0.416-.58,0.22-.478,0.11-.29V63.119Zm-0.416.722-0.133.282-0.275.416-0.11.2-0.212.251-0.165.149H75.786l-0.18-.086-0.243-.141-0.18-.133-0.2-.125-0.141-.118-0.11-.141-0.016-.125,0.039-.18,0.188-.353,0.165-.259,0.149-.251,0.11-.165,0.1-.1,0.118-.086,0.133-.016,0.1,0.016L75.9,62.617l0.384,0.227,0.243,0.165,0.188,0.157,0.1,0.094,0.055,0.094Z"/><polygon class="w" points="71.755 66.977 73.433 64.86 73.496 64.781 73.59 64.758 73.739 64.821 73.841 64.923 73.959 65.048 74.39 67.589 74.406 67.762 74.39 67.934 74.257 68.13 74.108 68.303 74.006 68.374 73.888 68.374 73.849 68.264 73.496 65.762 73.465 65.668 73.402 65.746 73.127 66.083 72.257 67.221 72.155 67.346 72.045 67.377 71.927 67.307 71.778 67.213 71.747 67.087 71.755 66.977"/><polygon class="w" points="71.308 67.605 73.065 69.166 73.12 69.236 73.112 69.377 72.971 69.574 72.845 69.715 72.751 69.77 72.625 69.73 72.5 69.605 71.3 68.491 71.253 68.515 71.237 68.687 71.222 69.087 71.174 69.323 71.088 69.448 70.861 69.558 70.633 69.597 70.594 69.503 70.586 69.213 70.68 68.797 70.735 68.201 70.853 67.989 71.025 67.777 71.174 67.66 71.245 67.613 71.308 67.605"/><path class="w" d="M67.872,68.123l0.565-.58,0.094-.039h0.086l0.1,0.086s0.235,0.22.259,0.227a0.753,0.753,0,0,1,.1.157L69.1,68.13s-0.173.173-.2,0.188-0.431.4-.431,0.4l-0.118.118-0.118-.008-0.11-.118L68,68.57l-0.125-.125-0.078-.118,0.016-.157Z"/><path class="w" d="M63.559,71.746l0.384-.259,0.3-.251,0.11-.047a0.05,0.05,0,0,1,.055.008c0.016,0.024.118,0.125,0.118,0.125l0.165,0.227,0.078,0.141L64.8,71.848l-0.094.141-0.3.212-0.267.188-0.133.094L63.88,72.5l-0.094-.1-0.2-.275-0.11-.157-0.008-.125Z"/><path class="w" d="M70.053,72l-0.063-.2-0.251-.376L69.5,71.181,69.1,70.742,68.908,70.6l-0.125-.008-0.212-.024-0.212.071-0.3.165-0.322.227-0.4.361-0.526.525-0.055.063-0.078.173-0.055.18,0.031,0.416L66.7,72.9,67.5,73.825l0.18,0.141,0.173,0.047h0.2l0.29-.078,0.212-.1,0.267-.173,0.173-.188,0.227-.141,0.424-.369L69.99,72.5l0.078-.267Zm-0.667.486-0.141.149-0.737.651-0.2.118-0.173.031L68.006,73.4l-0.133-.141L67.567,72.9l-0.259-.329-0.118-.2,0.016-.125,0.078-.071,0.612-.557,0.243-.188,0.149-.149,0.165-.063h0.1L68.7,71.268l0.4,0.408,0.165,0.2,0.157,0.259a0.959,0.959,0,0,1,.039.133A2.22,2.22,0,0,1,69.386,72.483Z"/><path class="w" d="M67.143,74.225l-0.086-.2-0.125-.212-0.22-.18-0.173-.086-0.149-.016-0.267.023-0.235.078-0.18.1-0.29.2-0.353.275-0.306.243-0.024.094-0.086.047-0.071-.047L64.5,74.4l-0.078-.11,0.071-.094,0.118-.071,0.2-.11,0.173-.118,0.188-.149,0.769-.518,0.118-.133,0.086-.1-0.047-.125-0.11-.149-0.1-.016-0.11.016L63.763,74.2l-0.071.118,0.063,0.11L63.9,74.664,64.2,75.1l0.173,0.259,0.149,0.063,0.1-.078,0.125-.125,0.094-.086,0.016-.1,0.086-.133,0.094-.1a1.011,1.011,0,0,0,.141-0.11c0.023-.031.149-0.141,0.149-0.141l0.259-.157,0.149-.125,0.141-.086,0.22-.094,0.1,0.008,0.118,0.047,0.094,0.055,0.078,0.141,0.11,0.149a1.144,1.144,0,0,1,.031.133,0.963,0.963,0,0,1-.016.1l-0.11.11-0.165.18-0.314.227-0.329.22-0.227.133-0.1.031-0.094-.047L65.182,75.5,65.057,75.4H64.963l-0.118.063-0.133.118a1,1,0,0,0-.094.118,0.188,0.188,0,0,0,.008.1l0.094,0.157,0.212,0.173,0.212,0.039L65.4,76.13,65.708,76l0.251-.165,0.455-.29,0.416-.392,0.29-.314,0.086-.212-0.023-.274Z"/><polygon class="w" points="61.786 76.217 62.131 75.519 62.202 75.315 62.28 75.142 62.335 75.079 62.923 74.703 62.994 74.727 63.143 74.923 64.139 76.632 64.21 76.789 64.225 76.899 64.108 77.064 63.912 77.166 63.747 77.189 63.653 77.127 63.512 76.876 62.79 75.66 62.743 75.534 62.672 75.511 62.61 75.66 62.445 76.099 62.296 76.334 62.163 76.436 61.927 76.428 61.794 76.381 61.786 76.217"/><polygon class="w" points="57.943 75.032 58.814 74.585 58.916 74.57 59.041 74.703 59.222 75.142 59.237 75.307 58.743 75.574 58.382 75.77 58.249 75.777 58.163 75.668 57.959 75.205 57.904 75.103 57.943 75.032"/><polygon class="w" points="55.088 76.24 55.245 76.193 55.323 76.209 55.402 76.24 55.496 76.515 55.598 76.805 55.645 76.962 55.637 77.111 55.551 77.228 55.41 77.26 55.292 77.205 55.12 76.742 55.018 76.46 55.033 76.303 55.088 76.24"/><polygon class="w" points="51.237 77.338 51.755 77.197 51.951 77.166 52.045 77.197 52.131 77.377 52.194 77.707 52.21 77.887 52.178 78.021 51.849 78.115 51.323 78.24 51.159 78.256 51.01 77.981 50.947 77.715 50.916 77.472 50.978 77.393 51.237 77.338"/><path class="w" d="M57.237,77.6l2.29-1.075,0.1-.024H59.7l0.094,0.133,0.047,0.133V76.86l-0.071.11-1.639.722-0.141.055-0.063.078,0.047,0.133,0.055,0.133,0.1,0.039,0.055-.078,0.337-.2,0.314-.149,0.392-.173,0.306-.11,0.275-.024,0.235,0.031,0.243,0.165,0.22,0.314,0.118,0.337-0.016.384-0.2.337-0.235.18-0.878.408-0.345.157-0.322.078-0.306-.008-0.2-.078-0.157-.133-0.133-.2-0.039-.133,0.118-.1,0.22-.1,0.125-.063a0.039,0.039,0,0,1,.047-0.008,1.2,1.2,0,0,1,.11.133l0.086,0.11,0.125,0.039,0.188,0.016,0.173-.086,0.416-.188,0.22-.11,0.2-.1,0.133-.094,0.078-.11V78.452l-0.11-.275-0.071-.141-0.086-.055-0.149-.031-0.227.031-0.141.055-0.29.118-0.2.071-0.235.133-0.157.094-0.11.086-0.024.1-0.141.133-0.188.071-0.118.039-0.125-.1-0.29-.682-0.094-.2L57.2,77.73l-0.016-.118Z"/><path class="w" d="M54.437,78.687l0.376-.165,0.6-.212,0.29-.11,0.2-.031,0.22-.055,0.2-.016,0.2,0.008,0.188,0.11,0.118,0.165,0.094,0.251L56.955,78.8V78.97l-0.086.125,0.039,0.086,0.141,0.031,0.141,0.094L57.323,79.5l0.024,0.227v0.3l-0.11.173L57,80.46l-0.235.141-0.369.165-0.518.2-0.259.071-0.314.055H54.923l-0.2-.11-0.18-.133-0.125-.22-0.063-.2a1.244,1.244,0,0,0,.125-0.086,2.115,2.115,0,0,1,.282-0.1l0.125-.031,0.1,0.063,0.063,0.157,0.086,0.125,0.125,0.055L55.5,80.6l0.4-.133,0.588-.227,0.212-.133,0.078-.078-0.008-.18-0.086-.18-0.1-.086-0.133-.024-0.235.078-0.243.047-0.173.071-0.18.078-0.18.008-0.1-.1-0.086-.173,0.063-.11,0.188-.071,0.447-.157,0.188-.071,0.125-.031,0.063-.071,0.024-.118-0.024-.149-0.055-.133L56.194,78.6H56.045a3.233,3.233,0,0,1-.353.11c-0.047,0-.431.141-0.431,0.141l-0.22.063-0.2.1-0.071.047-0.039.094L54.743,79.3l0.031,0.165-0.039.086-0.1.11-0.2.063-0.149-.016-0.1-.11-0.055-.1-0.047-.212,0.008-.18,0.1-.18a0.777,0.777,0,0,1,.071-0.11c0.024-.024.11-0.1,0.11-0.1Z"/><path class="w" d="M51.723,80.044l0.776-.8,0.173-.086,0.2-.071,0.251-.039,0.071-.008,0.071,0.047L53.3,79.276l0.494,1.875,0.039,0.18-0.024.18a1.034,1.034,0,0,1-.125.094c-0.024.008-.173,0.039-0.173,0.039l-0.149.047-0.118-.055-0.431-1.788-0.031-.071-0.078.016-0.149.149-0.188.243L52.21,80.4l-0.1.047-0.125.024-0.165-.031-0.141-.063-0.047-.118,0.047-.133Z"/><polygon class="w" points="47.276 78.115 47.386 78.076 47.488 78.068 47.567 78.083 47.645 78.209 47.716 78.609 47.739 78.954 47.723 79.095 47.637 79.15 47.496 79.181 47.378 79.15 47.308 79.017 47.237 78.515 47.206 78.225 47.276 78.115"/><polygon class="w" points="42.508 78.342 43.371 78.327 43.441 78.35 43.527 78.413 43.52 79.04 43.48 79.15 43.292 79.174 42.994 79.197 42.696 79.197 42.5 79.158 42.367 79.095 42.359 78.515 42.382 78.397 42.508 78.342"/><path class="w" d="M47.739,81.111l-0.078-.345L47.5,80.515l-0.251-.188-0.235-.063-0.494-.024-0.51.039-0.392.063-0.392.071-0.149.024-0.18.11-0.141.11-0.173.188a1.228,1.228,0,0,0-.063.165v0.776l0.039,0.3,0.118,0.353,0.125,0.235,0.227,0.22,0.275,0.071,0.337,0.016,0.478-.008,0.471-.024,0.573-.11,0.345-.173,0.157-.149,0.086-.22,0.031-.408Zm-0.62,1.145-0.22.133-0.227.071-0.3.016-0.353.031-0.29.016-0.282-.016-0.125-.094-0.11-.188-0.055-.408-0.031-.431V81.127a0.945,0.945,0,0,1,.078-0.149,1.751,1.751,0,0,1,.149-0.1l0.11-.039,0.408-.047,0.282-.031,0.243-.031,0.22,0.008h0.2l0.11,0.039a0.736,0.736,0,0,1,.094.11L47.1,81.127l0.055,0.565,0.023,0.361Z"/><path class="w" d="M41.527,80.523l0.635-.063,0.51-.039,0.58,0.047L43.5,80.5l0.251,0.149,0.165,0.188,0.055,0.2L44,81.377l-0.024.282-0.18.2-0.173.11-0.22.094-0.235.024-0.424.031-0.282.031-0.29.008-0.3.071-0.157.086a0.214,0.214,0,0,0-.078.086V82.53l0.071,0.078,0.267-.016,1.8,0.016,0.133,0.031a0.04,0.04,0,0,1,.047.024c0.008,0.031.024,0.2,0.024,0.2l-0.039.149-0.1.078-0.212.008-2.29-.031-0.212-.039a0.143,0.143,0,0,1-.063-0.047c-0.008-.024-0.031-0.345-0.031-0.345l0.031-.463,0.118-.2s0.251-.071.275-0.086,0.275-.078.275-0.078l0.306-.055,0.353-.008,0.29-.031,0.212-.024,0.188-.016,0.173-.039,0.1-.11,0.039-.157-0.016-.2-0.039-.149-0.094-.086-0.22-.031L42.539,80.9,42,80.915l-0.2.024-0.094.055-0.047.141-0.008.18-0.016.125-0.133.024h-0.3l-0.125-.039-0.031-.157-0.008-.227,0.086-.188,0.1-.149,0.165-.141Z"/><polygon class="w" points="38.492 80.93 38.759 80.805 38.923 80.703 39.151 80.609 39.3 80.491 39.425 80.413 39.567 80.35 39.723 80.319 39.974 80.342 40.123 80.366 40.241 80.366 40.343 80.428 40.327 80.64 40.163 82.687 40.116 82.852 39.982 82.946 39.771 82.946 39.582 82.836 39.574 82.672 39.684 81.032 39.692 80.915 39.59 80.891 39.394 80.977 39.292 81.079 39.104 81.181 38.955 81.299 38.829 81.323 38.688 81.307 38.547 81.197 38.422 81.087 38.492 80.93"/><path class="w" d="M37.982,78.013l0.149,0.008,0.086,0.047,0.055,0.157-0.016.306-0.078.424-0.047.149a0.486,0.486,0,0,1-.157.078,0.869,0.869,0,0,1-.149-0.071,0.423,0.423,0,0,1-.047-0.141l0.047-.643,0.047-.227,0.063-.086h0.047Z"/><path class="w" d="M32.414,76.758l0.447,0.11,0.424,0.118,0.078,0.039,0.071,0.047v0.235l-0.118.376-0.1.165-0.157-.016-0.29-.063L32.5,77.676l-0.22-.086L32.147,77.5a1.013,1.013,0,0,1-.024-0.18c0.008-.024.133-0.369,0.133-0.369l0.063-.165Z"/><path class="w" d="M36.469,80.35l-0.11-.243-0.133-.149s-0.188-.125-0.212-0.133l-0.29-.094-0.3-.078-0.369-.071L34.625,79.5l-0.431-.039h-0.11l-0.165.024-0.149.063-0.173.133-0.125.141-0.086.243-0.11.447-0.133.533-0.023.22,0.118,0.306,0.141,0.2,0.173,0.133,0.243,0.141,0.486,0.125L34.79,82.3l0.439,0.055,0.322,0.031,0.212-.094,0.22-.094,0.141-.188,0.11-.149,0.2-.6L36.5,80.7Zm-0.6.612-0.125.533-0.141.251-0.086.086-0.2.023L35,81.817l-0.408-.078L34.3,81.66l-0.227-.071-0.157-.1L33.8,81.33l-0.031-.173L33.9,80.6l0.063-.314,0.086-.2L34.139,80l0.2-.031,0.408,0.039,0.274,0.071,0.22,0.039,0.306,0.063a1.675,1.675,0,0,0,.165.094c0.055,0.023.149,0.078,0.149,0.078l0.063,0.086Z"/><path class="w" d="M30.955,79.276l1.1-.337,0.125-.039,0.2,0.024,0.22,0.086,0.2,0.063,0.031,0.063-0.008.322-0.455,1.569-0.078.29L32.2,81.44l-0.039.078-0.1.055-0.149-.008-0.173-.086-0.1-.063-0.047-.11,0.039-.149,0.431-1.451,0.039-.149V79.487H32l-0.369.141-0.22.071-0.2.024L31.1,79.7a1.04,1.04,0,0,1-.078-0.086c-0.016-.024-0.141-0.157-0.141-0.157l-0.063-.1Z"/><path class="w" d="M28.327,78.389l1.1-.314s0.149-.016.18-0.016,0.235,0.008.235,0.008l0.11,0.055,0.173,0.086,0.165,0.071,0.024,0.1-0.086.282L29.574,80.5l-0.071.11-0.125.078-0.165-.024-0.18-.063-0.094-.094L28.9,80.381l0.039-.2,0.118-.2,0.5-1.2,0.047-.086-0.047-.063-0.078-.031-0.275.063-0.392.125-0.149.055-0.11-.024-0.227-.235-0.055-.141Z"/><path class="w" d="M26.955,75.558l0.3-.706,0.071-.039,0.133,0.024,0.1,0.055,0.055,0.071-0.063.29-0.227.447a0.6,0.6,0,0,1-.086.149c-0.024.008-.133,0.031-0.133,0.031l-0.149-.094a0.245,0.245,0,0,1-.055-0.094A0.569,0.569,0,0,1,26.955,75.558Z"/><path class="w" d="M24.218,75.738l-0.11-.188-0.384-.376-0.455-.306-0.6-.345-0.22-.118L22.21,74.35l-0.2.016-0.2.024-0.212.118-0.141.157-0.62,1-0.055.165,0.008,0.314,0.11,0.227,0.157,0.2,0.2,0.2,0.345,0.2,0.251,0.18L22.461,77.5l0.259,0.1s0.235,0.055.259,0.055,0.173-.016.173-0.016l0.141-.063,0.173-.133,0.322-.408,0.376-.737,0.078-.337Zm-0.573.22-0.11.251-0.188.376-0.2.267-0.133.165-0.094.039-0.133.016-0.157-.055-0.3-.173-0.353-.227-0.212-.094s-0.157-.1-0.188-0.133S21.425,76.2,21.425,76.2l-0.016-.173,0.039-.11,0.3-.573,0.133-.212,0.157-.165,0.157-.071,0.157-.008,0.275,0.157s0.455,0.306.478,0.314,0.2,0.118.2,0.118a1.174,1.174,0,0,1,.2.149,1.225,1.225,0,0,0,.118.133l0.047,0.063Z"/><path class="w" d="M21.269,73.8l-0.11-.18L21,73.4l-0.157-.086-0.11-.125-0.227-.157s-0.227-.173-0.259-0.188S20.037,72.7,20.037,72.7L19.8,72.5l-0.259-.118s-0.18-.078-0.212-0.086a1.02,1.02,0,0,0-.157,0l-0.2.016-0.165.118-0.22.173-0.6.816-0.063.11-0.1.212v0.243L17.9,74.193l0.086,0.173,0.486,0.463,0.729,0.51,0.361,0.243,0.259,0.11,0.22-.016,0.2-.086L20.4,75.5l0.173-.2,0.22-.274,0.416-.526,0.063-.22s0.039-.251.039-0.275S21.269,73.8,21.269,73.8Zm-0.6.306-0.141.243-0.329.4-0.141.18-0.133.11L19.81,75.1l-0.133-.031L19.512,75l-0.4-.306-0.463-.337-0.125-.149-0.078-.118-0.031-.118,0.078-.157,0.329-.5,0.173-.22,0.18-.173,0.118-.063h0.133l0.188,0.078,0.22,0.165,0.282,0.212,0.2,0.125s0.173,0.141.212,0.188l0.133,0.157,0.055,0.141Z"/><polygon class="w" points="18.523 71.519 18.461 71.432 18.265 71.252 18.069 71.095 17.967 71.04 16.586 70.868 16.547 70.907 16.578 71.001 16.657 71.236 16.72 71.354 16.806 71.417 17.025 71.44 17.653 71.456 17.731 71.495 17.716 71.574 17.676 71.652 16.531 72.93 16.461 73.032 16.5 73.158 16.68 73.299 16.814 73.417 16.939 73.417 17.01 73.338 18.469 71.66 18.523 71.519"/><path class="w" d="M21.2,71.636l0.235-.322,0.078-.055,0.1,0.008,0.463,0.306s0.212,0.149.243,0.18l0.11,0.11L22.437,72,22.3,72.17l-0.2.227-0.094.125H21.872l-0.141-.071-0.275-.227-0.18-.141a0.479,0.479,0,0,1-.141-0.141c0-.039-0.008-0.173-0.008-0.173Z"/><polygon class="w" points="20.225 71.307 20.657 70.789 20.72 70.703 20.829 70.703 20.916 70.727 21.002 70.836 21.002 70.97 20.688 71.401 20.539 71.558 20.422 71.676 20.288 71.683 20.225 71.613 20.178 71.479 20.225 71.307"/><polygon class="w" points="19.096 70.515 19.598 69.879 19.7 69.825 19.786 69.84 19.888 69.903 19.92 69.997 19.88 70.154 19.41 70.703 19.3 70.789 19.174 70.789 19.088 70.679 19.057 70.554 19.096 70.515"/><path class="w" d="M18,69.472l0.533-.525,0.063-.094h0.1l0.141,0.133v0.133l-0.063.157-0.188.227-0.3.29a0.3,0.3,0,0,1-.086.039,0.716,0.716,0,0,1-.133-0.063l-0.1-.11-0.031-.1Z"/><path class="w" d="M16.955,68.4l0.235-.2,0.2-.2,0.133-.086L17.6,67.9l0.094,0.078,0.1,0.118-0.055.149-0.29.306-0.235.22L17.1,68.8l-0.118-.031s-0.047-.078-0.063-0.1a0.709,0.709,0,0,1-.039-0.125Z"/><path class="w" d="M15.849,67.393l0.447-.376,0.125-.133,0.118-.047a0.133,0.133,0,0,1,.1.016,0.413,0.413,0,0,1,.078.118l0.031,0.1-0.063.118-0.424.4-0.157.118H15.982L15.9,67.636l-0.094-.125Z"/><polygon class="w" points="14.869 66.209 15.292 65.848 15.425 65.762 15.527 65.699 15.645 65.699 15.755 65.801 15.771 65.919 15.739 66.021 15.371 66.366 15.104 66.562 14.955 66.57 14.853 66.46 14.798 66.311 14.869 66.209"/><polygon class="w" points="13.943 64.938 14.202 64.679 14.359 64.57 14.476 64.499 14.61 64.491 14.704 64.491 14.806 64.632 14.798 64.75 14.586 64.985 14.194 65.299 14.029 65.362 13.959 65.323 13.88 65.221 13.849 65.095 13.943 64.938"/><path class="w" d="M12.939,63.691l0.384-.306,0.18-.133,0.11-.071h0.078a0.143,0.143,0,0,1,.086.039,0.857,0.857,0,0,0,.078.149l0.024,0.11-0.235.212-0.392.282-0.18.078-0.1-.031L12.853,63.9l0.016-.18Z"/><path class="w" d="M12.061,62.248l0.612-.369a0.226,0.226,0,0,1,.078-0.047,0.759,0.759,0,0,1,.094.016l0.11,0.141,0.039,0.118-0.11.125-0.29.227-0.259.173-0.173.047-0.118-.031-0.055-.11L11.943,62.4,12,62.264Z"/><polygon class="w" points="11.198 60.35 11.598 60.083 11.747 60.052 11.833 60.076 11.99 60.295 12.186 60.719 12.288 60.821 12.335 61.001 12.178 61.181 12.022 61.307 11.825 61.385 11.661 61.432 11.535 61.385 11.418 61.213 11.159 60.75 11.12 60.554 11.112 60.413 11.198 60.35"/><polygon class="w" points="10.32 59.354 10.712 59.15 10.884 59.04 11.033 58.946 11.096 58.93 11.159 58.977 11.237 59.079 11.276 59.205 11.222 59.346 10.994 59.479 10.68 59.628 10.531 59.723 10.39 59.746 10.272 59.613 10.218 59.425 10.32 59.354"/><polygon class="w" points="9.551 57.754 10.053 57.495 10.225 57.432 10.327 57.385 10.437 57.401 10.531 57.558 10.547 57.668 10.469 57.793 10.076 58.005 9.872 58.076 9.7 58.123 9.551 58.091 9.472 57.989 9.465 57.825 9.551 57.754"/><path class="w" d="M11.7,63.958l-0.047-.2-0.133-.235-0.243-.463-0.282-.384-0.376-.478-0.212-.149-0.165-.063-0.22-.031-0.149.031-0.157.047L9.59,62.1l-0.165.1-0.141.11-0.447.3-0.094.078a1.429,1.429,0,0,0-.157.157c-0.031.047-.118,0.235-0.118,0.235l0.008,0.274,0.063,0.267L8.7,63.966,9.01,64.452l0.345,0.51,0.306,0.353,0.149,0.11L10.037,65.5l0.259-.039,0.212-.094,0.212-.11,0.314-.2L11.5,64.7l0.157-.235,0.063-.275Zm-0.541.165-0.165.18-0.408.329-0.251.118-0.227.118H9.927L9.8,64.734l-0.274-.314L9.19,63.879l-0.149-.235-0.047-.251,0.047-.133L9.2,63.15l0.376-.274L9.857,62.7l0.173-.078,0.173-.008,0.149,0.071,0.22,0.212,0.478,0.753,0.063,0.141,0.071,0.165Z"/><path class="w" d="M9.833,60.758l-0.125-.282-0.18-.408-0.243-.478-0.314-.478L8.822,59l-0.2-.094-0.212-.024-0.2.024-0.243.1-0.2.165-0.133.141-0.078.2-0.016.188L7.59,59.95l0.078,0.22,0.2,0.455L8.037,60.97l0.29,0.416,0.1,0.094-0.023.063-0.1.047-0.1.071H8.053l-0.086-.008-0.094-.1-0.1-.149-0.3-.573-0.1-.227-0.1-.361,0.008-.125,0.055-.071L7.4,60.013l0.023-.11-0.039-.094-0.1-.2L7.19,59.487l-0.1-.024L6.963,59.5l-0.094.1-0.157.173L6.688,59.9v0.275l0.055,0.212,0.18,0.4L7.088,61.2l0.439,0.745,0.243,0.251L7.9,62.256l0.22,0.055,0.212-.031,0.243-.071,0.337-.2s0.533-.29.557-0.306,0.243-.2.243-0.2l0.118-.18,0.023-.259Zm-0.525.212-0.078.1L9.065,61.2l-0.125.047-0.086-.016L8.72,61.142,8.312,60.46l-0.2-.447L8.092,59.84l0.031-.133L8.2,59.636l0.141-.1,0.118-.024L8.6,59.5l0.11,0.1L8.884,59.9l0.259,0.494L9.284,60.7l0.031,0.125Z"/><polygon class="w" points="8.916 56.091 9.378 55.879 9.52 55.809 9.637 55.785 9.739 55.825 9.841 55.942 9.857 56.076 9.708 56.217 9.339 56.381 9.072 56.483 8.931 56.483 8.829 56.421 8.806 56.177 8.916 56.091"/><polygon class="w" points="8.194 54.374 8.72 54.17 8.892 54.091 9.018 54.076 9.112 54.099 9.198 54.209 9.198 54.374 9.088 54.538 8.837 54.617 8.602 54.695 8.398 54.774 8.257 54.734 8.139 54.601 8.131 54.444 8.194 54.374"/><path class="w" d="M5.637,54.248L6.272,54l0.463-.173L6.806,53.8,6.9,53.825l0.118,0.267,0.7,1.984,0.047,0.149,0.016,0.149-0.086.1L7.5,56.523H7.386l-0.071-.1L6.853,54.977,6.7,54.64l-0.047-.11H6.571l-0.133.008-0.11.063,0.008,0.086,0.173,0.306,0.227,0.627,0.11,0.329,0.031,0.259,0.008,0.267-0.016.18-0.133.188-0.173.165L6.2,57.15l-0.235.031-0.227-.008-0.227-.063L5.378,56.97l-0.165-.227L5.01,56.3l-0.2-.627-0.094-.392-0.047-.439,0.071-.188,0.157-.18,0.118-.11L5.159,54.3h0.1l0.11,0.157s0.063,0.212.078,0.235a0.749,0.749,0,0,1,.024.165l-0.1.071-0.078.008-0.086.071L5.167,55.1,5.2,55.409l0.267,0.714s0.133,0.314.149,0.353a0.477,0.477,0,0,0,.1.11l0.2,0.016,0.243-.039L6.3,56.444l0.086-.173V56.083l-0.11-.447-0.118-.322-0.149-.337-0.173-.212A0.4,0.4,0,0,0,5.778,54.7a0.594,0.594,0,0,1-.078-0.11L5.6,54.35Z"/><polygon class="w" points="7.81 52.091 8.163 51.966 8.327 51.919 8.461 51.919 8.539 51.997 8.751 52.727 8.79 52.93 8.782 53.04 8.633 53.134 8.296 53.213 8.108 53.26 7.99 53.213 7.927 53.072 7.763 52.444 7.731 52.256 7.739 52.138 7.81 52.091"/><polygon class="w" points="7.135 50.719 7.457 50.609 7.747 50.546 7.951 50.499 8.076 50.507 8.163 50.632 8.163 50.797 8.029 50.899 7.7 50.97 7.441 51.04 7.245 51.056 7.159 51.04 7.08 50.891 7.088 50.758 7.135 50.719"/><polygon class="w" points="6.782 48.75 7.339 48.625 7.535 48.617 7.645 48.585 7.731 48.632 7.778 48.727 7.81 48.883 7.755 48.97 7.433 49.048 7.143 49.103 6.931 49.134 6.806 49.119 6.72 49.017 6.704 48.836 6.782 48.75"/><path class="w" d="M6.571,52.554l-0.047-.322L6.3,51.283l-0.243-.526L5.9,50.593,5.755,50.5l-0.149-.016-0.2.023-0.165.047a1.228,1.228,0,0,1-.165.063,0.434,0.434,0,0,0-.1.11l-0.086.188L4.774,50.8l-0.1-.071L4.508,50.7H4.335l-0.165.055L4,50.836l-0.2.188-0.094.22v0.384l0.1,0.588L3.99,52.93l0.259,0.533,0.173,0.18,0.2,0.063,0.2,0.039,0.235-.031,0.212-.1,0.118-.1,0.055-.149,0.008-.094,0.071,0.023,0.055,0.055L5.676,53.4l0.141,0.016h0.2l0.2-.063,0.2-.125,0.1-.2L6.578,52.8Zm-1.522.486L4.978,53.1l-0.141.039-0.18.008-0.094-.086-0.227-.588-0.118-.5L4.186,51.73,4.171,51.5l0.071-.086,0.071-.063,0.078-.008,0.125-.016,0.118,0.023,0.1,0.118,0.1,0.227,0.133,0.526,0.1,0.392L5.1,52.828Zm1-.314L5.9,52.8l-0.118.024-0.125-.039L5.59,52.672l-0.149-.439-0.165-.667L5.261,51.4l0.016-.149L5.308,51.2,5.4,51.142l0.1-.031,0.11-.024,0.125,0.055,0.11,0.306,0.2,0.761,0.047,0.243,0.023,0.18Z"/><polygon class="w" points="6.571 46.758 6.751 46.687 6.971 46.656 7.167 46.632 7.3 46.64 7.402 46.664 7.48 46.727 7.496 46.828 7.504 46.962 7.3 47.032 7.033 47.111 6.806 47.127 6.61 47.134 6.461 47.095 6.406 46.993 6.461 46.813 6.571 46.758"/><path class="w" d="M6.32,44.7l0.345-.055,0.227-.031H7.245l0.063,0.063,0.024,0.2L7.245,45l-0.22.055L6.8,45.064l-0.267.016-0.18-.008-0.063-.094-0.055-.188Z"/><polygon class="w" points="6.618 42.123 7.237 42.123 7.284 42.162 7.308 42.287 7.316 43.15 7.292 43.276 7.198 43.307 6.978 43.33 6.641 43.33 6.516 43.291 6.469 43.197 6.484 42.303 6.547 42.185 6.618 42.123"/><path class="w" d="M5.041,43.707l-0.1-.22-0.1-.157L4.7,43.221l-0.2-.094h-0.3l-0.243.023L3.778,43.3l-0.11.2L3.59,43.362l-0.1-.063L3.3,43.228H3.065l-0.29.071-0.094.11-0.086.157-0.078.188-0.024.259-0.016.377,0.039,0.847,0.078,0.447,0.094,0.243s0.133,0.118.165,0.141,0.188,0.118.188,0.118l0.22,0.023,0.267-.047,0.125-.118L3.786,45.9l0.2,0.227,0.133,0.063,0.243,0.008L4.6,46.146l0.18-.11,0.188-.188,0.094-.2,0.047-.337,0.016-.792ZM3.567,45.362L3.52,45.5l-0.094.094-0.149.031L3.1,45.6,3.033,45.5l-0.063-.2-0.063-.6,0.008-.424,0.016-.259,0.023-.086,0.063-.055,0.094-.023,0.141-.016,0.133,0.031L3.465,44l0.055,0.18,0.047,0.533,0.008,0.392Zm1.082,0.016-0.055.141-0.165.055H4.257l-0.141-.047-0.047-.149-0.086-.816-0.016-.29,0.008-.314,0.031-.149,0.055-.039L4.2,43.723l0.173-.031,0.149,0.055L4.594,43.9l0.055,0.518L4.68,45.142Z"/><path class="w" d="M5.065,39.966l-0.1-.212a1.507,1.507,0,0,0-.118-0.125C4.822,39.613,4.7,39.542,4.7,39.542l-0.2-.078L4.241,39.44l-0.855-.031H3.292l-0.141.031-0.157.071-0.2.141a1.434,1.434,0,0,0-.118.2c0,0.023-.1.369-0.1,0.369l-0.1.761,0.016,0.949,0.078,0.2,0.086,0.2L2.8,42.428l0.22,0.141L3.284,42.6l0.463,0.016H4.155L4.429,42.6l0.22-.086,0.243-.235L5,42.068l0.039-.251,0.039-.69L5.12,40.3Zm-0.447,1.4-0.047.306-0.047.157-0.039.11L4.312,42a1.9,1.9,0,0,1-.188.039H3.8l-0.337-.023L3.19,42l-0.133-.071L2.971,41.84,2.916,41.6V41.244l0.031-.471,0.016-.384a0.539,0.539,0,0,1,.055-0.157A0.6,0.6,0,0,0,3.1,40.115l0.22-.094H3.559l0.078-.008,0.424,0.008h0.2l0.173,0.063,0.11,0.055,0.094,0.118,0.023,0.329Z"/><polygon class="w" points="6.367 40.334 7.19 40.374 7.269 40.389 7.331 40.515 7.316 40.727 7.198 40.813 6.814 40.813 6.476 40.805 6.304 40.75 6.272 40.601 6.257 40.444 6.367 40.334"/><path class="w" d="M6.563,38.107L6.916,38.13l0.29,0.047,0.2,0.031,0.1,0.055L7.535,38.4,7.5,38.546l-0.055.086-0.314-.024-0.3-.024-0.2-.086a0.72,0.72,0,0,1-.118-0.086,0.842,0.842,0,0,1-.031-0.165Z"/><path class="w" d="M6.9,35.856L7.19,35.9l0.3,0.055,0.173,0.024L7.778,36l0.094,0.086v0.125l-0.1.165-0.188.016s-0.251-.008-0.275-0.016-0.392-.094-0.392-0.094l-0.133-.094,0.024-.149L6.845,35.9Z"/><polygon class="w" points="7.371 33.534 7.567 33.558 7.998 33.691 8.163 33.738 8.304 33.746 8.351 33.832 8.335 34.036 8.233 34.146 7.959 34.138 7.622 34.036 7.284 33.942 7.269 33.793 7.371 33.534"/><path class="w" d="M3.472,33.723l0.729-2.6,0.039-.11h0.11L4.508,31.04l0.11,0.016L4.7,31.111l0.737,1.231,0.729,1,0.047,0.125-0.055.251-0.086.259-0.071.078-0.063.031-0.118-.11L4.578,31.927l-0.086-.133-0.047.078-0.463,1.89-0.047.149a0.238,0.238,0,0,1-.078.071C3.825,33.989,3.723,34,3.723,34l-0.149-.071-0.1-.1v-0.1Z"/><polygon class="w" points="8.076 31.793 8.335 31.025 8.39 30.946 8.523 30.923 8.743 30.977 9.002 31.072 9.104 31.103 9.174 31.181 9.19 31.315 8.931 32.068 8.861 32.193 8.704 32.248 8.516 32.209 8.351 32.146 8.171 32.083 8.084 32.013 8.045 31.872 8.076 31.793"/><path class="w" d="M4.578,29.927l0.871-2.361,0.063-.039,0.118,0.008,0.141,0.047L5.833,27.66v0.149l-0.016.141L5.159,29.589l0.016,0.118,0.118,0.047,0.157,0.055L5.52,29.848l0.008-.267L5.622,29.2l0.157-.455,0.1-.212,0.2-.353,0.125-.157L6.453,27.9l0.212-.071,0.267,0.024,0.2,0.063L7.292,28l0.22,0.173L7.629,28.3,7.692,28.4v0.227l-0.078.588-0.157.439-0.149.4-0.165.251-0.259.345-0.133.125-0.165.086H6.437l-0.165-.055-0.165-.141-0.016-.11,0.086-.314,0.11-.086,0.078-.008,0.063,0.055,0.118,0.039,0.1-.047,0.11-.165L6.986,29.5l0.1-.322,0.086-.18L7.2,28.781l-0.039-.157L7.025,28.53,6.9,28.483l-0.149-.031-0.157.008-0.11.039-0.1.094-0.071.133-0.18.478-0.094.259-0.024.165-0.047.18-0.024.149,0.063,0.071L5.912,30.3l-0.086.22a0.162,0.162,0,0,1-.118.016,1.981,1.981,0,0,0-.22-0.078L5.018,30.3l-0.392-.173-0.047-.071V29.927Z"/><polygon class="w" points="8.853 28.907 8.79 29.142 8.837 29.291 9.378 29.519 9.653 29.597 9.763 29.55 9.841 29.323 9.739 29.181 9.386 29.017 8.963 28.876 8.853 28.907"/><path class="w" d="M10.045,26.523l0.51,0.22,0.259,0.141L10.9,26.954l-0.039.173-0.086.173-0.165.008-0.29-.149L9.943,26.97a1.119,1.119,0,0,1-.11-0.1,0.932,0.932,0,0,1-.016-0.2L9.9,26.546Z"/><polygon class="w" points="11.284 24.209 11.778 24.476 11.967 24.617 12.076 24.719 12.053 24.828 11.959 25.001 11.849 25.025 11.645 24.93 11.394 24.797 11.151 24.648 11.041 24.538 11.041 24.366 11.12 24.264 11.198 24.209 11.284 24.209"/><polygon class="w" points="12.735 21.934 13.371 22.35 13.457 22.436 13.472 22.577 13.386 22.758 13.229 22.774 13.018 22.648 12.618 22.374 12.523 22.272 12.492 22.138 12.516 22.005 12.625 21.942 12.735 21.934"/><polygon class="w" points="14.171 20.185 14.649 19.597 14.727 19.558 14.822 19.558 15.096 19.754 15.276 19.887 15.363 19.966 15.394 20.06 15.261 20.24 14.869 20.742 14.751 20.876 14.649 20.946 14.516 20.844 14.218 20.593 14.092 20.468 14.076 20.35 14.171 20.185"/><path class="w" d="M9.331,20.256l1.608-2.18L11,18,11.1,18.044l0.227,0.18,0.086,0.149L11.9,20.836,11.92,20.97l-0.078.212-0.2.235-0.1.094-0.118-.031-0.055-.235-0.384-2.306-0.039-.071-0.086.008L9.669,20.546l-0.039.094H9.535a0.374,0.374,0,0,1-.125-0.063,1.416,1.416,0,0,0-.118-0.149Z"/><path class="w" d="M15.057,16.35l-0.1-.149-0.274-.259-0.251-.212-0.29-.235-0.188-.141-0.173-.031L13.6,15.3l-0.2.055-0.251.149-0.275.22-0.322.337-0.322.369L11.857,17l-0.063.125-0.039.282,0.024,0.2,0.188,0.227L12.2,18.075l0.643,0.51,0.2,0.118,0.188,0.047,0.275-.055,0.243-.125,0.22-.2,0.275-.251,0.62-.769,0.212-.274,0.071-.3V16.538Zm-0.486.549c-0.008.024-.133,0.227-0.133,0.227l-0.361.424-0.243.29L13.692,18l-0.118.118-0.141.055-0.141-.016-0.165-.1L12.712,17.7l-0.118-.125-0.165-.149-0.1-.18V17.087l0.125-.188,0.447-.51,0.227-.243,0.22-.173,0.118-.055L13.59,15.9l0.133,0.063,0.235,0.165s0.157,0.125.2,0.157,0.235,0.22.235,0.22l0.094,0.118a0.2,0.2,0,0,1,.078.094A1.383,1.383,0,0,1,14.571,16.9Z"/><path class="w" d="M16.257,17.511l0.518,0.478,0.071,0.094,0.047,0.094-0.024.141-0.1.094-0.11.031-0.11-.063-0.165-.118-0.2-.2-0.141-.141-0.078-.094-0.047-.094a1.987,1.987,0,0,1,.141-0.173c0.024-.016.094-0.055,0.094-0.055l0.063-.008Z"/><path class="w" d="M18.116,15.519l0.094-.1h0.1l0.11,0.039,0.494,0.6L19,16.2l-0.086.141-0.094.078-0.11.024-0.086-.071-0.149-.118-0.384-.424L18.029,15.7a0.248,0.248,0,0,1,0-.11A0.278,0.278,0,0,1,18.116,15.519Z"/><path class="w" d="M20.351,13.66l0.1-.118,0.149-.063h0.1l0.267,0.337,0.29,0.408-0.016.141a0.667,0.667,0,0,0-.078.1,0.622,0.622,0,0,1-.094.1l-0.118-.047-0.141-.11L20.6,14.13a2.854,2.854,0,0,1-.235-0.322C20.367,13.777,20.351,13.66,20.351,13.66Z"/><path class="w" d="M22.923,12.021l0.51,0.737,0.11,0.016,0.078-.078,0.118-.086-0.016-.094-0.055-.149-0.4-.565a0.166,0.166,0,0,0-.063-0.094H23.072l-0.1.063-0.055.071Z"/><path class="w" d="M24.178,9.056l-0.086-.18L23.865,8.64l-0.18-.055H23.5l-0.22.024a2.605,2.605,0,0,1-.275.1,3.159,3.159,0,0,0-.329.173l-0.314.157-0.376.22-0.2.212-0.078.2-0.1-.212-0.086-.22v-0.1l0.094-.1,0.1-.094,0.149-.118L22.563,8.4l0.157-.039,0.165,0.031,0.11,0.078,0.118-.008,0.133-.016,0.149-.071L23.48,8.3,23.5,8.154,23.457,8.06l-0.1-.11-0.11-.11L23.1,7.77l-0.125.016-0.2.039-0.322.157-0.408.188-0.51.329-0.4.267-0.22.29-0.039.18L20.9,9.448l0.047,0.165,0.62,1.059,0.11,0.078,0.188,0.11,0.188,0.078h0.2l0.227-.039,0.392-.2,0.282-.149,0.431-.267L24,9.958l0.2-.243,0.063-.235V9.268Zm-0.549.557-0.212.2-0.455.282-0.337.188-0.2.086-0.149.016-0.11-.055-0.149-.165-0.047-.141V9.911a0.739,0.739,0,0,1,.086-0.141l0.11-.063,0.439-.282,0.3-.188,0.188-.1,0.149-.055,0.165-.008L23.527,9.15,23.637,9.3l0.031,0.149Z"/><path class="w" d="M24.155,6.985L26.218,6l0.118-.047h0.086l0.1,0.086,0.055,0.141V6.3l-0.251.165-1.3.588-0.173.071L24.7,7.213,24.767,7.33l0.086,0.212L24.908,7.6l0.078-.125,0.165-.149,0.267-.149,0.314-.149,0.29-.118L26.3,6.813l0.243-.039h0.188L26.916,6.8l0.133,0.086L27.261,7.15,27.418,7.5l0.039,0.173-0.024.3-0.165.251-0.235.188-0.376.235-0.471.22-0.345.165-0.3.086s-0.2.016-.227,0.016-0.227-.016-0.227-0.016l-0.18-.1L24.774,8.9,24.7,8.742,24.68,8.609l0.086-.11,0.173-.078,0.118-.055h0.071l0.086,0.086L25.3,8.6l0.11,0.031,0.251-.039,0.275-.118,0.29-.157,0.243-.149,0.18-.11L26.8,7.966l0.031-.094-0.016-.2-0.055-.141-0.086-.149s-0.1-.063-0.125-0.071-0.133-.031-0.133-0.031l-0.227.047-0.251.094-0.314.125-0.2.141-0.212.125-0.149.118-0.031.055-0.016.1s-0.11.063-.133,0.071-0.173.078-.173,0.078l-0.118.031-0.1-.094-0.133-.251-0.235-.471L23.99,7.189l0.047-.133L24.108,7Z"/><polygon class="w" points="25.582 10.601 25.92 10.397 26.171 10.264 26.288 10.193 26.398 10.17 26.476 10.185 26.657 10.452 26.767 10.672 26.837 10.805 26.767 10.938 26.374 11.166 26.045 11.346 25.888 11.377 25.763 11.299 25.598 11.025 25.512 10.805 25.512 10.672 25.582 10.601"/><path class="w" d="M29.088,9.738c-0.031-.071-0.353-0.7-0.353-0.7l-0.024-.125L28.743,8.8l0.11-.063,0.118-.024,0.071,0.024,0.1,0.18L29.378,9.5,29.41,9.628l-0.024.094-0.157.071-0.118.016Z"/><path class="w" d="M32.171,8.515l-0.235-.643L31.9,7.762l0.016-.1L32,7.581l0.11-.055L32.194,7.5l0.047,0.031,0.1,0.149,0.118,0.408,0.063,0.275,0.039,0.125L32.484,8.6a0.874,0.874,0,0,1-.157.055,0.4,0.4,0,0,1-.118-0.063Z"/><polygon class="w" points="35.504 7.566 35.339 6.805 35.371 6.711 35.48 6.672 35.598 6.64 35.669 6.64 35.731 6.734 35.81 6.93 35.865 7.276 35.904 7.479 35.912 7.628 35.841 7.707 35.637 7.73 35.551 7.676 35.504 7.566"/><polygon class="w" points="39.018 6.97 38.947 6.256 38.978 6.154 39.104 6.123 39.222 6.123 39.323 6.17 39.363 6.381 39.41 6.648 39.441 6.962 39.441 7.087 39.371 7.166 39.237 7.189 39.065 7.181 39.01 7.064 39.018 6.97"/><polygon class="k" points="39.304 13.201 39.339 13.142 39.41 13.115 42.512 13.087 42.594 13.111 42.598 13.268 42.61 14.523 39.323 14.527 39.304 13.201"/><polygon class="x" points="39.472 17.891 42.465 17.883 42.555 17.84 42.594 17.793 42.618 17.699 42.61 14.421 39.323 14.417 39.359 17.754 39.363 17.813 39.402 17.86 39.472 17.891"/><path class="y" d="M40.355,13.636l0.02,1.22L40.39,14.93l0.071,0.031,0.973-.012,0.043-.035,0.027-.039L41.52,13.7a0.4,0.4,0,0,0-.035-0.075c-0.012-.012-0.106-0.071-0.106-0.071l-0.929,0-0.075.043Z"/><polyline class="z" points="40.476 15.617 41.472 15.609 41.543 15.625 41.551 15.679 41.52 17.836 41.472 17.899 41.371 17.915 40.484 17.907 40.425 17.852 40.425 17.797 40.414 17.715 40.41 15.707 40.414 15.648 40.425 15.621 40.461 15.617"/><polygon class="k" points="12.911 44.95 12.852 44.914 12.824 44.844 12.797 41.742 12.821 41.659 12.977 41.655 14.232 41.644 14.236 44.93 12.911 44.95"/><polygon class="x" points="17.601 44.781 17.593 41.789 17.55 41.699 17.503 41.659 17.409 41.636 14.13 41.644 14.126 44.93 17.464 44.895 17.522 44.891 17.57 44.852 17.601 44.781"/><path class="y" d="M13.346,43.9l1.22-.02,0.075-.016,0.031-.071L14.66,42.82l-0.035-.043-0.039-.027-1.173-.016a0.4,0.4,0,0,0-.075.035c-0.012.012-.071,0.106-0.071,0.106l0,0.929,0.043,0.075Z"/><polyline class="z" points="15.326 43.777 15.319 42.781 15.334 42.71 15.389 42.702 17.546 42.734 17.609 42.781 17.624 42.883 17.617 43.769 17.562 43.828 17.507 43.828 17.424 43.84 15.417 43.844 15.358 43.84 15.33 43.828 15.326 43.793"/><polygon class="k" points="72.907 41.417 72.965 41.452 72.993 41.523 73.02 44.625 72.997 44.707 72.84 44.711 71.585 44.723 71.581 41.437 72.907 41.417"/><polygon class="x" points="68.216 41.586 68.224 44.578 68.267 44.668 68.314 44.707 68.409 44.731 71.687 44.723 71.691 41.437 68.354 41.472 68.295 41.476 68.248 41.515 68.216 41.586"/><path class="y" d="M72.471,42.468l-1.22.02-0.075.016-0.031.071,0.012,0.973,0.035,0.043,0.039,0.027L72.4,43.633a0.4,0.4,0,0,0,.075-0.035c0.012-.012.071-0.106,0.071-0.106l0-.929-0.043-.075Z"/><polyline class="z" points="70.491 42.59 70.499 43.586 70.483 43.656 70.428 43.664 68.271 43.633 68.209 43.586 68.193 43.484 68.201 42.597 68.256 42.539 68.31 42.539 68.393 42.527 70.401 42.523 70.459 42.527 70.487 42.539 70.491 42.574"/><polygon class="k" points="44.6 72.93 44.565 72.986 44.495 73.012 41.393 73.038 41.31 73.015 41.306 72.866 41.295 71.672 44.581 71.669 44.6 72.93"/><polygon class="x" points="44.432 68.468 41.44 68.475 41.349 68.516 41.31 68.561 41.287 68.65 41.295 71.769 44.581 71.773 44.546 68.598 44.542 68.542 44.502 68.497 44.432 68.468"/><path class="y" d="M43.549,72.515l-0.02-1.16-0.016-.071-0.071-.03-0.973.011-0.043.034-0.027.037-0.016,1.116a0.37,0.37,0,0,0,.035.071c0.012,0.011.106,0.067,0.106,0.067l0.929,0,0.075-.041Z"/><polyline class="z" points="43.428 70.631 42.432 70.639 42.361 70.624 42.353 70.572 42.385 68.52 42.432 68.46 42.534 68.445 43.42 68.453 43.479 68.505 43.479 68.557 43.491 68.635 43.495 70.546 43.491 70.602 43.479 70.628 43.444 70.631"/><polygon class="k" points="43.179 13.201 43.214 13.142 43.285 13.115 46.387 13.087 46.469 13.111 46.473 13.268 46.485 14.523 43.198 14.527 43.179 13.201"/><polygon class="x" points="43.347 17.891 46.34 17.883 46.43 17.84 46.469 17.793 46.493 17.699 46.485 14.421 43.198 14.417 43.234 17.754 43.238 17.813 43.277 17.86 43.347 17.891"/><path class="y" d="M44.23,13.636l0.02,1.22,0.016,0.075,0.071,0.031,0.973-.012,0.043-.035,0.027-.039L45.395,13.7a0.4,0.4,0,0,0-.035-0.075c-0.012-.012-0.106-0.071-0.106-0.071l-0.929,0-0.075.043Z"/><polyline class="z" points="44.351 15.617 45.347 15.609 45.418 15.625 45.426 15.679 45.395 17.836 45.347 17.899 45.246 17.915 44.359 17.907 44.3 17.852 44.3 17.797 44.289 17.715 44.285 15.707 44.289 15.648 44.3 15.621 44.336 15.617"/><polygon class="k" points="69.707 56.748 69.74 56.809 69.727 56.883 68.154 59.557 68.092 59.616 67.955 59.538 66.873 58.903 68.561 56.083 69.707 56.748"/><polygon class="x" points="65.599 54.479 64.066 57.049 64.057 57.149 64.077 57.207 64.145 57.275 66.961 58.955 68.655 56.139 65.775 54.453 65.723 54.426 65.662 54.435 65.599 54.479"/><path class="y" d="M68.793,57.425l-1.056-.611-0.072-.025-0.063.044-0.49.84,0.008,0.055,0.02,0.044,1,0.617a0.4,0.4,0,0,0,.082.008c0.016,0,.115-0.054.115-0.054l0.482-.795V57.462Z"/><polyline class="z" points="67.033 56.511 66.527 57.369 66.477 57.421 66.426 57.4 64.593 56.263 64.563 56.19 64.602 56.095 65.065 55.339 65.142 55.317 65.189 55.345 65.266 55.377 66.99 56.407 67.038 56.441 67.055 56.465 67.041 56.497"/><polygon class="k" points="26.762 18.567 26.609 18.162 26.621 17.982 29.198 16.39 29.335 16.458 29.778 17.193 33.305 23.084 30.493 24.786 26.762 18.567"/><polygon class="x" points="29.837 23.439 32.401 21.897 32.446 21.796 32.444 21.716 32.393 21.584 29.907 17.43 27.081 19.108 29.636 23.323 29.684 23.396 29.753 23.435 29.837 23.439"/><path class="y" d="M27.647,17.974L28.281,19l0.051,0.055,0.076-.01,0.829-.508,0.019-.052,0-.047-0.58-1a0.391,0.391,0,0,0-.068-0.045c-0.016,0-.127-0.006-0.127-0.006l-0.8.473-0.042.075Z"/><polyline class="z" points="28.779 19.653 29.627 19.129 29.704 19.121 29.77 19.215 32.054 23.108 32.081 23.245 32.01 23.325 31.241 23.765 31.131 23.697 31.073 23.598 30.974 23.456 28.819 19.849 28.759 19.742 28.74 19.686 28.766 19.661"/><polygon class="k" points="16.344 29.766 16.154 29.567 16.126 29.431 17.625 26.8 17.736 26.769 18.198 27.034 21.888 29.171 20.245 32.017 16.344 29.766"/><polygon class="aa" points="20.004 31.899 19.877 31.737 19.872 31.614 21.378 28.987 21.47 28.945 21.804 29.135 24.47 30.675 22.824 33.519 20.004 31.899"/><polygon class="ab" points="21.598 32.658 23.094 30.067 23.085 29.957 23.045 29.888 22.936 29.798 18.749 27.367 17.089 30.203 21.366 32.654 21.443 32.695 21.522 32.696 21.598 32.658"/><path class="y" d="M17.036,28.937l1.051,0.59,0.071,0.024L18.22,29.5l0.48-.846L18.691,28.6l-0.02-.043-0.993-.6a0.391,0.391,0,0,0-.081-0.007c-0.016,0-.114.056-0.114,0.056l-0.471.8V28.9Z"/><polyline class="z" points="18.839 29.858 19.327 28.989 19.39 28.945 19.494 28.996 23.378 31.295 23.467 31.402 23.444 31.507 22.984 32.264 22.855 32.257 22.756 32.199 22.601 32.123 18.969 30.011 18.864 29.945 18.821 29.906 18.831 29.871"/><polygon class="k" points="17.944 59.609 17.676 59.676 17.545 59.633 16.005 57.024 16.033 56.913 16.493 56.643 20.18 54.501 21.835 57.34 17.944 59.609"/><polygon class="aa" points="21.613 57.491 21.409 57.521 21.3 57.465 19.767 54.853 19.776 54.752 20.107 54.557 22.768 53.007 24.419 55.848 21.613 57.491"/><polygon class="ab" points="23.063 56.485 21.557 53.899 21.457 53.853 21.377 53.854 21.245 53.903 17.056 56.33 18.694 59.179 22.944 56.685 23.018 56.638 23.058 56.569 23.063 56.485"/><path class="y" d="M17.568,58.6l1.033-.619,0.056-.05-0.008-.077-0.5-.836-0.052-.02-0.047,0-1.011.565a0.391,0.391,0,0,0-.046.067c0,0.016-.007.127-0.007,0.127l0.461,0.807L17.524,58.6Z"/><polyline class="z" points="19.262 57.489 18.75 56.635 18.743 56.557 18.839 56.493 22.764 54.263 22.901 54.238 22.98 54.31 23.409 55.086 23.339 55.194 23.239 55.252 23.096 55.348 19.459 57.452 19.351 57.511 19.295 57.529 19.27 57.503"/><polygon class="k" points="29.684 69.377 29.495 69.552 29.363 69.574 26.732 68.073 26.698 67.968 26.944 67.538 28.927 64.109 31.773 65.752 29.684 69.377"/><polygon class="aa" points="31.665 65.976 31.51 66.092 31.39 66.093 28.763 64.586 28.718 64.498 28.895 64.187 30.324 61.71 33.169 63.356 31.665 65.976"/><polygon class="ab" points="32.361 64.49 29.77 62.994 29.662 63 29.596 63.036 29.511 63.135 27.254 67.026 30.091 68.685 32.365 64.71 32.402 64.639 32.4 64.563 32.361 64.49"/><path class="y" d="M28.849,68.7L29.4,67.72l0.021-.067-0.047-.06-0.846-.48-0.054.006-0.042.017-0.555.922a0.352,0.352,0,0,0,0,.077c0,0.015.059,0.109,0.059,0.109l0.8,0.471,0.084,0Z"/><polyline class="z" points="29.697 67.017 28.829 66.529 28.783 66.467 28.83 66.371 30.967 62.763 31.069 62.682 31.173 62.707 31.931 63.166 31.928 63.288 31.874 63.38 31.804 63.524 29.843 66.899 29.782 66.996 29.745 67.036 29.711 67.025"/><polygon class="k" points="58.998 67.728 59.056 67.98 59.011 68.107 56.408 69.655 56.299 69.632 56.045 69.203 54.027 65.763 56.86 64.098 58.998 67.728"/><polygon class="aa" points="57.003 64.305 57.027 64.497 56.97 64.603 54.363 66.145 54.264 66.14 54.08 65.831 52.62 63.348 55.455 61.686 57.003 64.305"/><polygon class="ab" points="56.048 62.956 53.468 64.472 53.42 64.569 53.419 64.645 53.464 64.769 55.751 68.678 58.593 67.028 56.242 63.063 56.198 62.995 56.131 62.958 56.048 62.956"/><path class="y" d="M57.993,68.118l-0.584-.964L57.361,67.1l-0.076.01-0.835.5-0.021.05-0.005.045,0.532,0.944a0.355,0.355,0,0,0,.065.042c0.016,0,.124,0,0.124,0l0.8-.465,0.044-.072V68.118Z"/><polyline class="z" points="56.944 66.541 56.091 67.056 56.014 67.065 55.954 66.976 53.856 63.312 53.835 63.183 53.907 63.105 54.681 62.672 54.786 62.735 54.84 62.828 54.931 62.961 56.913 66.355 56.967 66.456 56.984 66.509 56.957 66.533"/><polygon class="k" points="67.613 26.828 67.871 26.761 68 26.803 69.59 29.381 69.567 29.491 69.129 29.761 65.612 31.899 63.902 29.092 67.613 26.828"/><polygon class="aa" points="64.113 28.942 64.31 28.912 64.418 28.967 66.002 31.549 65.997 31.648 65.681 31.843 63.143 33.39 61.436 30.582 64.113 28.942"/><polygon class="ab" points="62.735 29.945 64.291 32.501 64.391 32.546 64.468 32.545 64.595 32.496 68.591 30.073 66.897 27.257 62.843 29.747 62.774 29.793 62.737 29.862 62.735 29.945"/><path class="y" d="M68.014,27.829l-0.985.618-0.053.05,0.011,0.076L67.5,29.4l0.051,0.02,0.046,0,0.965-.565a0.371,0.371,0,0,0,.043-0.067c0-.016,0-0.125,0-0.125l-0.477-.8-0.074-.043Z"/><polyline class="z" points="66.402 28.934 66.93 29.779 66.94 29.855 66.849 29.919 63.104 32.145 62.971 32.17 62.891 32.099 62.446 31.333 62.511 31.225 62.606 31.168 62.742 31.071 66.211 28.971 66.315 28.913 66.369 28.895 66.394 28.921"/><polygon class="k" points="56.27 16.758 56.551 16.428 56.715 16.352 59.354 17.838 59.36 17.99 58.931 18.734 55.48 24.669 52.631 23.031 56.27 16.758"/><polygon class="x" points="53.493 21.806 56.083 23.304 56.193 23.295 56.262 23.255 56.352 23.146 58.786 18.961 55.951 17.299 53.497 21.574 53.456 21.651 53.455 21.73 53.493 21.806"/><path class="y" d="M57.217,17.246l-0.59,1.05-0.024.071,0.045,0.062,0.846,0.48,0.055-.008,0.043-.02,0.6-.992a0.391,0.391,0,0,0,.007-0.081c0-.016-0.056-0.114-0.056-0.114l-0.8-.472H57.254Z"/><polyline class="z" points="56.295 19.049 57.164 19.537 57.208 19.601 57.157 19.704 54.854 23.587 54.748 23.676 54.643 23.653 53.886 23.192 53.893 23.063 53.951 22.964 54.028 22.809 56.142 19.179 56.208 19.074 56.247 19.031 56.282 19.041"/></svg>